<?xml version="1.0" standalone="no"?>
<!DOCTYPE svg PUBLIC "-//W3C//DTD SVG 20010904//EN"
 "http://www.w3.org/TR/2001/REC-SVG-20010904/DTD/svg10.dtd">
<svg version="1.0" xmlns="http://www.w3.org/2000/svg"
 width="800.000000pt" height="800.000000pt" viewBox="0 0 800.000000 800.000000"
 preserveAspectRatio="xMidYMid meet">

<g transform="translate(0.000000,800.000000) scale(0.100000,-0.100000)"
fill="#000000" stroke="none">
<path d="M3567 7242 c-4 -5 -16 -8 -26 -5 -11 3 -30 -2 -43 -11 -25 -18 -13
-21 26 -7 21 9 26 7 33 -15 8 -25 9 -25 26 -7 14 17 15 22 3 38 -8 11 -15 14
-19 7z"/>
<path d="M4416 7233 c-11 -11 -6 -25 7 -20 8 3 14 -1 14 -9 0 -7 -5 -10 -11
-7 -6 4 -5 -1 2 -10 8 -9 17 -15 20 -14 4 1 8 -1 9 -6 6 -17 133 -115 133
-102 0 3 10 -5 23 -19 12 -14 40 -31 62 -38 26 -9 41 -20 44 -33 3 -20 3 -20
-20 0 -13 11 -9 3 10 -17 31 -34 35 -36 47 -20 10 14 11 13 7 -11 -5 -23 -3
-26 13 -20 14 5 16 3 10 -12 -4 -11 -4 -16 0 -12 4 4 18 -3 31 -15 24 -23 32
-44 11 -32 -9 5 -9 2 1 -9 7 -9 21 -17 31 -17 12 0 17 -6 13 -18 -2 -10 5 -28
16 -41 12 -13 21 -30 21 -37 0 -7 5 -16 11 -20 8 -5 10 1 5 19 -4 17 -1 31 9
41 14 14 14 18 -1 41 -16 24 -32 37 -18 13 4 -7 3 -8 -4 -4 -7 4 -12 15 -12
24 0 21 -78 104 -91 97 -5 -4 -6 1 -3 9 4 11 0 16 -10 16 -9 0 -22 11 -28 25
-6 14 -17 25 -24 25 -7 0 -17 7 -22 17 -5 9 -16 14 -24 10 -9 -3 -15 1 -15 9
0 8 5 14 10 14 6 0 0 11 -13 25 -20 21 -21 27 -10 38 10 9 11 9 6 0 -10 -17 9
-16 45 2 16 9 27 20 24 25 -4 6 -8 10 -11 10 -3 0 -2 -4 1 -10 3 -5 1 -10 -4
-10 -6 0 -11 5 -11 10 0 6 -9 10 -21 10 -11 0 -18 4 -15 8 2 4 -7 9 -22 10
-15 1 -28 6 -30 12 -2 5 -10 6 -19 3 -10 -4 -14 -2 -10 4 3 5 1 10 -6 11 -59
4 -99 11 -109 19 -18 14 -64 24 -72 16z m144 -123 c0 -5 -4 -10 -10 -10 -5 0
-10 5 -10 10 0 6 5 10 10 10 6 0 10 -4 10 -10z"/>
<path d="M3414 7194 c-15 -48 -13 -47 -31 -33 -15 13 -15 14 0 17 10 2 17 7
17 12 0 11 -58 -8 -66 -21 -3 -5 -9 -7 -13 -5 -4 3 -7 -7 -6 -22 0 -15 -4 -30
-10 -34 -6 -5 -3 -8 7 -8 9 0 20 5 23 10 4 6 10 8 15 5 5 -3 -1 -20 -13 -39
-14 -21 -25 -29 -29 -22 -5 7 -8 4 -8 -6 0 -19 25 -25 35 -8 10 16 25 11 18
-6 -6 -15 -4 -15 19 0 23 15 37 40 42 71 0 5 9 11 20 13 10 2 16 0 12 -6 -3
-6 2 -9 11 -7 10 2 20 4 23 4 3 1 19 13 35 28 17 15 22 23 12 20 -12 -5 -20
-1 -24 11 -13 34 -80 54 -89 26z"/>
<path d="M3251 7136 c-9 -11 -8 -14 6 -12 10 0 17 -5 16 -11 -2 -7 2 -13 7
-13 15 0 12 26 -4 39 -10 8 -16 8 -25 -3z"/>
<path d="M3165 7100 c-4 -7 2 -9 18 -5 19 5 25 2 30 -14 3 -13 13 -21 26 -21
15 0 19 4 14 18 -4 9 -11 20 -17 24 -16 11 -64 9 -71 -2z"/>
<path d="M4800 7092 c0 -5 11 -17 25 -26 17 -11 22 -21 18 -34 -6 -15 -5 -15
11 -3 15 13 18 12 22 -5 6 -22 51 -47 60 -33 3 5 11 9 17 9 7 0 6 -4 -3 -10
-13 -8 -12 -10 3 -10 9 0 25 -9 34 -20 12 -13 19 -16 24 -8 5 8 12 6 24 -5 9
-10 13 -17 9 -17 -4 0 7 -13 26 -30 18 -16 35 -28 38 -26 2 2 12 -4 23 -15 10
-10 26 -19 35 -19 9 0 13 -5 9 -12 -4 -7 0 -5 8 5 8 9 23 17 33 16 11 0 14 -3
6 -6 -9 -4 -10 -8 -2 -18 9 -11 6 -13 -12 -9 -13 2 -16 1 -8 -2 8 -4 19 -13
23 -20 4 -8 13 -14 20 -14 7 0 6 4 -3 10 -13 8 -13 10 2 10 9 0 23 -6 30 -13
7 -8 19 -12 26 -9 18 6 15 -9 -5 -24 -17 -13 -17 -14 0 -8 14 5 18 2 15 -12
-2 -14 2 -18 16 -16 10 2 15 -1 12 -6 -9 -15 31 -2 44 13 8 10 8 15 -1 21 -8
5 -10 3 -4 -7 4 -8 -2 -4 -14 9 -12 12 -26 22 -32 22 -6 0 -8 4 -5 8 3 5 -15
21 -39 37 -25 15 -45 30 -45 32 0 2 5 1 12 -3 7 -4 8 -3 4 4 -4 7 -14 12 -22
12 -8 0 -17 7 -21 16 -3 8 -12 13 -19 10 -8 -3 -14 1 -14 9 0 16 -21 16 -32 0
-4 -5 -8 4 -8 20 l-1 30 -15 -34 c-14 -33 -15 -33 -34 -16 -23 21 -26 29 -7
22 8 -3 20 -1 28 4 11 7 9 13 -11 28 -13 11 -28 17 -32 15 -5 -3 -11 2 -14 10
-3 9 -12 16 -20 16 -8 0 -14 4 -14 9 0 9 -57 27 -74 22 -5 -1 -6 4 -3 12 4 10
-1 13 -21 9 -19 -4 -24 -2 -20 10 5 11 0 14 -20 10 -19 -4 -24 -2 -20 10 4 8
1 15 -5 15 -7 0 -22 3 -34 7 -13 4 -23 3 -23 -2z"/>
<path d="M3123 7079 c-13 -4 -23 -11 -23 -14 0 -4 5 -3 10 0 6 3 10 -3 10 -13
0 -21 36 -37 46 -21 3 5 14 9 25 9 22 0 24 9 6 30 -14 18 -43 21 -74 9z"/>
<path d="M4710 7080 c20 -13 80 -13 80 0 0 6 -21 10 -47 10 -35 0 -44 -3 -33
-10z"/>
<path d="M3051 7042 c0 -7 -5 -11 -10 -7 -5 3 -12 -3 -16 -14 -3 -12 -13 -18
-23 -16 -20 3 -70 -30 -61 -40 4 -3 18 -1 33 4 17 7 26 7 26 1 0 -6 -6 -10
-12 -10 -9 0 -8 -4 2 -10 12 -8 11 -10 -6 -10 -11 0 -21 -6 -21 -14 0 -10 13
-6 43 12 33 20 40 29 32 39 -15 19 -1 30 21 16 14 -9 21 -9 30 0 16 16 13 27
-8 27 -11 0 -22 8 -24 18 -3 9 -5 11 -6 4z"/>
<path d="M3075 7040 c-3 -6 1 -7 9 -4 18 7 21 14 7 14 -6 0 -13 -4 -16 -10z"/>
<path d="M3260 7010 c-9 -6 -10 -10 -3 -10 6 0 15 5 18 10 8 12 4 12 -15 0z"/>
<path d="M3290 7007 c0 -9 -6 -18 -12 -20 -8 -3 -5 -6 5 -6 10 -1 16 -5 12
-10 -3 -6 -14 -8 -24 -6 -11 2 -22 -3 -25 -12 -8 -21 2 -35 17 -23 89 76 87
73 50 84 -17 5 -23 3 -23 -7z m40 -12 c0 -2 -7 -5 -15 -9 -9 -3 -15 0 -15 9 0
9 6 12 15 9 8 -4 15 -7 15 -9z"/>
<path d="M2895 6950 c-7 -11 22 -26 32 -16 4 3 -1 6 -11 6 -9 0 -14 5 -11 10
3 6 4 10 1 10 -3 0 -8 -5 -11 -10z"/>
<path d="M2838 6908 c-10 -10 -18 -22 -18 -28 0 -5 -4 -10 -10 -10 -5 0 -10 5
-10 11 0 5 -5 7 -10 4 -6 -4 -8 -11 -5 -16 4 -5 1 -10 -4 -10 -6 -1 -15 -3
-21 -4 -5 -1 -13 -3 -17 -4 -5 -1 1 -8 11 -16 11 -8 16 -18 13 -22 -4 -4 -13
-1 -19 5 -8 8 -15 7 -25 -6 -8 -9 -12 -11 -8 -4 3 6 1 12 -4 12 -6 0 -11 -11
-11 -25 0 -29 15 -33 29 -7 8 13 10 14 11 2 0 -13 2 -13 9 -1 5 8 16 11 25 8
9 -4 15 -1 13 6 -1 7 6 11 15 11 10 -1 16 2 13 6 -3 4 6 11 20 14 24 6 36 26
15 26 -5 0 -10 -4 -10 -10 0 -5 -12 -10 -27 -9 l-28 1 28 11 c15 6 27 14 27
18 0 3 11 4 25 1 21 -4 24 -1 18 14 -13 34 -27 41 -45 22z"/>
<path d="M3164 6898 c-35 -24 -91 -98 -75 -98 15 0 14 -57 0 -62 -6 -2 -9 -13
-7 -23 4 -18 6 -17 16 7 6 14 21 36 34 47 l23 22 -22 5 c-24 7 -21 32 4 30 9
0 18 5 21 13 3 10 -2 11 -18 6 l-23 -7 21 22 c11 12 26 19 32 15 6 -4 17 -1
25 5 8 7 15 9 15 5 0 -4 7 -2 15 5 8 7 12 16 9 21 -9 15 -38 10 -70 -13z"/>
<path d="M3056 6775 c-3 -9 0 -15 9 -15 8 0 15 7 15 15 0 8 -4 15 -9 15 -5 0
-11 -7 -15 -15z"/>
<path d="M2660 6739 c0 -10 6 -20 13 -23 6 -3 -1 -4 -18 -1 -16 2 -25 2 -18
-1 8 -4 9 -13 3 -29 -7 -19 1 -15 40 22 28 26 50 48 50 49 0 1 -16 2 -35 1
-26 -1 -35 -5 -35 -18z"/>
<path d="M2604 6725 c-10 -8 -14 -15 -8 -15 6 0 17 7 24 15 16 19 9 19 -16 0z"/>
<path d="M4952 6714 c-1 -15 -7 -33 -13 -41 -9 -11 -8 -12 5 -7 9 3 16 2 16
-3 0 -4 11 -21 25 -36 23 -24 24 -31 4 -29 -12 2 -5 -27 8 -32 7 -3 13 -14 13
-25 0 -30 11 -51 26 -51 8 0 14 -4 14 -10 0 -5 7 -10 15 -10 17 0 22 -55 5
-65 -5 -3 -7 -12 -4 -20 5 -12 8 -12 21 1 9 8 21 13 29 10 10 -4 10 2 2 27 -7
17 -17 43 -24 56 -7 14 -10 29 -7 34 3 6 2 7 -4 4 -11 -7 -34 35 -39 72 -4 36
-25 71 -42 71 -10 0 -13 7 -9 20 4 17 2 20 -14 15 -13 -5 -19 -2 -19 10 0 10
5 13 13 9 8 -5 8 -2 -2 9 -17 21 -16 22 -19 -9z"/>
<path d="M3020 6719 c0 -5 5 -9 10 -9 6 0 10 -6 10 -14 0 -7 -8 -13 -17 -12
-10 0 -19 -3 -20 -8 -1 -5 -6 -12 -12 -15 -5 -4 -6 -12 -2 -20 6 -10 11 -9 24
4 9 9 21 14 26 10 12 -7 24 12 27 41 2 16 -4 23 -22 27 -13 2 -24 0 -24 -4z"/>
<path d="M5396 6704 c-4 -9 -4 -19 -1 -22 2 -3 7 3 11 12 4 9 4 19 1 22 -2 3
-7 -3 -11 -12z"/>
<path d="M2563 6688 c-4 -7 -8 -17 -8 -23 0 -5 -4 -10 -10 -10 -15 0 -36 -16
-31 -23 2 -4 -2 -13 -10 -20 -8 -7 -14 -9 -14 -5 0 4 -6 -1 -12 -12 -7 -11
-11 -32 -9 -47 1 -14 -2 -29 -8 -33 -6 -3 -11 -14 -10 -23 0 -12 3 -11 9 6 12
28 24 29 15 1 -5 -14 -1 -25 12 -34 15 -12 15 -14 2 -15 -8 0 -24 -6 -34 -14
-18 -13 -18 -15 -2 -39 22 -34 21 -40 -4 -34 -17 5 -20 2 -16 -15 3 -11 2 -31
-3 -44 -5 -13 -6 -24 -1 -24 5 0 8 -85 7 -190 -1 -104 2 -190 6 -190 4 0 8 -9
8 -20 0 -11 4 -20 9 -20 14 0 20 131 9 178 -8 32 -8 50 1 69 6 14 9 40 5 59
-4 23 -2 34 5 34 7 0 12 17 12 43 0 98 5 184 13 210 7 21 5 27 -8 27 -9 0 -16
5 -16 10 0 6 6 10 14 10 13 0 31 27 28 43 -1 4 22 31 50 59 29 28 47 48 40 44
-10 -6 -11 -1 -6 19 6 25 5 27 -16 20 -15 -5 -20 -4 -16 4 4 6 5 11 2 11 -3 0
-8 -6 -13 -12z m17 -62 c0 -11 -19 -15 -25 -6 -3 5 1 10 9 10 9 0 16 -2 16 -4z"/>
<path d="M5351 6684 c0 -5 14 -20 31 -33 24 -20 31 -22 39 -10 5 8 9 9 9 4 0
-6 -6 -17 -12 -24 -11 -11 -10 -13 2 -9 8 3 21 -2 29 -10 13 -12 16 -12 28 4
15 21 -1 48 -24 40 -8 -3 -12 -2 -8 3 8 14 -6 41 -21 41 -8 0 -17 -7 -20 -15
-5 -12 -9 -12 -30 2 -13 8 -24 11 -23 7z"/>
<path d="M2959 6609 c-13 -25 -16 -77 -4 -104 6 -16 6 -18 -6 -7 -36 33 -58
-3 -24 -41 12 -15 25 -27 28 -27 3 0 8 18 12 40 4 22 10 40 14 40 4 0 7 10 8
21 2 19 1 20 -10 5 -10 -14 -12 -12 -12 14 0 22 5 30 18 30 9 0 17 -8 17 -17
0 -15 2 -16 9 -3 6 8 7 18 5 22 -3 4 0 8 6 8 7 0 8 6 1 18 -13 25 -49 25 -62
1z"/>
<path d="M5484 6600 c-13 -13 -3 -86 11 -82 10 4 28 -38 20 -47 -3 -3 -10 1
-15 9 -15 24 -22 5 -11 -31 5 -19 10 -27 10 -19 1 8 10 0 22 -19 11 -18 22
-32 24 -29 11 11 10 67 -2 95 -16 39 -16 46 -3 38 6 -3 10 -2 10 4 0 5 -5 13
-10 16 -6 4 -8 15 -5 25 3 10 -1 25 -10 34 -19 19 -27 20 -41 6z"/>
<path d="M5030 6471 c0 -6 4 -13 10 -16 6 -3 7 1 4 9 -7 18 -14 21 -14 7z"/>
<path d="M2896 6462 c-3 -6 0 -13 6 -16 10 -5 10 -7 0 -12 -18 -8 -30 -43 -47
-133 -8 -41 -17 -83 -21 -94 -4 -13 -2 -17 5 -13 7 4 11 -1 11 -13 0 -28 24
-27 38 2 9 16 9 32 2 57 -14 48 -12 61 5 25 10 -23 14 -26 14 -10 2 45 -12 94
-28 99 -9 3 -2 4 16 2 18 -1 30 1 27 6 -3 4 0 8 7 8 8 0 9 3 0 14 -6 7 -13 27
-15 45 -4 36 -11 47 -20 33z"/>
<path d="M5687 6435 c-14 -81 -4 -97 26 -46 21 36 22 62 3 55 -9 -3 -16 2 -18
13 -2 10 -7 0 -11 -22z"/>
<path d="M2265 6443 c-14 -31 -14 -45 -1 -40 7 3 13 -4 13 -15 2 -15 -4 -19
-25 -16 -23 3 -27 -1 -30 -25 -2 -15 -8 -25 -13 -22 -5 4 -9 -1 -9 -10 0 -10
-5 -13 -12 -9 -8 5 -9 2 -5 -9 3 -9 2 -19 -4 -22 -5 -4 -16 -20 -25 -37 -9
-16 -11 -27 -5 -24 20 13 11 -9 -15 -37 -14 -15 -22 -32 -18 -39 4 -6 3 -8 -3
-5 -12 8 -66 -91 -57 -105 3 -5 3 -20 0 -33 -4 -17 -11 -22 -22 -18 -13 5 -15
2 -9 -15 4 -14 2 -22 -5 -22 -8 0 -8 -6 0 -20 6 -11 7 -20 3 -20 -4 0 -2 -5 5
-12 7 -7 12 -21 12 -32 1 -15 5 -11 16 14 9 19 17 43 18 53 0 10 8 22 16 27
13 9 13 10 0 10 -11 0 -12 2 -2 8 7 5 15 19 17 33 3 13 9 25 14 27 6 2 8 9 5
16 -3 8 2 21 11 30 9 9 13 16 8 16 -5 0 -14 -5 -20 -11 -9 -9 -10 -6 -6 10 3
12 8 20 10 17 7 -7 35 21 49 50 9 16 9 24 1 27 -6 2 -7 9 -3 16 6 9 11 9 24
-1 13 -11 14 -11 8 0 -5 8 -1 18 9 26 16 12 16 13 1 19 -25 10 -19 24 14 29
23 4 30 0 33 -16 l4 -21 2 21 c0 11 11 26 24 31 22 10 23 17 21 79 -1 47 -6
70 -15 73 -8 2 -17 8 -20 13 -3 5 -10 1 -14 -9z m-205 -526 c0 -27 -2 -30 -15
-17 -8 9 -12 24 -9 37 9 32 24 18 24 -20z"/>
<path d="M5055 6420 c-3 -5 -1 -10 4 -10 6 0 11 5 11 10 0 6 -2 10 -4 10 -3 0
-8 -4 -11 -10z"/>
<path d="M2930 6411 c0 -6 4 -13 10 -16 6 -3 7 1 4 9 -7 18 -14 21 -14 7z"/>
<path d="M5104 6369 c-30 -9 -30 -9 -20 -53 7 -30 13 -41 19 -33 5 7 6 1 3
-15 -8 -35 6 -36 24 -3 7 14 18 25 23 25 6 0 2 9 -8 20 -11 12 -13 20 -6 20 7
0 9 5 6 10 -10 15 -25 2 -26 -23 -1 -18 -2 -19 -6 -4 -3 10 3 29 11 42 9 14
15 25 14 24 -2 0 -17 -5 -34 -10z"/>
<path d="M5768 6374 c-4 -3 -2 -17 4 -30 14 -29 3 -42 -21 -27 -10 7 -29 9
-41 6 -19 -5 -21 -10 -15 -43 5 -27 2 -42 -9 -53 -19 -19 -20 -52 -2 -135 11
-52 11 -67 -1 -88 -7 -15 -13 -30 -13 -34 0 -4 -8 -25 -17 -46 -9 -22 -16 -45
-14 -52 1 -8 -3 -19 -9 -27 -6 -7 -13 -32 -15 -55 -2 -23 -9 -48 -15 -55 -6
-7 -8 -20 -4 -29 7 -19 -12 -46 -32 -46 -10 0 -11 6 -4 26 12 29 -3 49 -35 49
-20 0 -32 -31 -33 -85 0 -21 1 -20 9 8 5 17 12 32 14 32 11 0 -10 -69 -33
-108 -18 -32 -22 -46 -13 -55 6 -6 10 -20 10 -32 -1 -16 -2 -17 -6 -2 -2 9 -8
17 -13 17 -4 0 -6 -9 -3 -19 3 -11 -2 -34 -11 -52 -9 -18 -15 -46 -15 -63 2
-28 2 -27 9 9 4 22 8 30 9 18 1 -27 38 -32 47 -8 4 8 11 15 17 15 7 0 7 -4 -1
-12 -14 -14 -16 -32 -2 -23 5 3 14 24 20 45 6 22 15 40 20 40 6 0 10 9 10 21
0 11 4 18 8 15 4 -2 8 5 9 17 2 42 29 122 40 120 13 -3 46 74 37 88 -3 5 0 17
7 25 11 14 16 34 34 139 4 22 9 47 12 55 7 17 9 27 18 85 5 33 2 42 -17 57
-13 10 -17 18 -10 18 9 0 11 7 7 20 -4 11 -2 20 4 20 6 0 11 -10 11 -22 0 -19
2 -20 10 -8 5 8 9 31 8 50 0 20 -2 26 -5 14 -3 -16 -10 -20 -29 -16 -29 5 -32
22 -4 22 16 0 20 7 20 35 0 27 4 35 18 35 12 0 14 2 4 8 -14 9 -6 42 10 42 6
0 8 -6 5 -14 -3 -8 3 -22 14 -32 17 -15 22 -16 29 -5 4 8 6 21 3 30 -3 12 0
11 11 -3 9 -11 16 -15 16 -9 0 6 -7 16 -15 23 -9 7 -14 19 -11 26 3 7 1 16 -5
20 -6 3 -14 15 -18 25 -4 11 -10 17 -13 13z m-88 -510 c0 -13 -4 -24 -10 -24
-5 0 -10 14 -10 31 0 17 4 28 10 24 6 -3 10 -17 10 -31z m-149 -368 c16 -17
10 -36 -11 -36 -17 0 -20 7 -20 38 0 44 13 66 18 30 2 -12 8 -27 13 -32z m-37
-42 c18 -7 22 -34 5 -34 -15 0 -39 26 -32 34 8 7 8 7 27 0z"/>
<path d="M5501 6354 c0 -11 3 -14 6 -6 3 7 2 16 -1 19 -3 4 -6 -2 -5 -13z"/>
<path d="M5540 6355 c-7 -8 -10 -22 -6 -30 3 -9 2 -14 -3 -11 -12 7 -18 -11
-17 -49 1 -21 8 -33 24 -40 16 -7 22 -17 21 -40 -1 -23 -3 -25 -6 -7 -8 43
-23 22 -24 -35 -1 -32 -3 -85 -5 -118 -5 -75 4 -147 17 -140 5 4 9 27 10 53 0
35 3 42 9 27 8 -18 9 -18 10 5 2 24 3 23 10 -5 l8 -30 0 30 c0 17 -3 50 -7 75
-7 38 -9 40 -11 15 l-2 -30 -7 30 c-4 17 -3 36 2 42 13 18 9 273 -4 273 -4 0
-12 -7 -19 -15z m7 -342 c-3 -10 -5 -2 -5 17 0 19 2 27 5 18 2 -10 2 -26 0
-35z"/>
<path d="M2286 6255 c4 -8 11 -15 16 -15 6 0 5 6 -2 15 -7 8 -14 15 -16 15 -2
0 -1 -7 2 -15z"/>
<path d="M2421 6244 c0 -11 3 -14 6 -6 3 7 2 16 -1 19 -3 4 -6 -2 -5 -13z"/>
<path d="M2309 6219 c-8 -17 -8 -23 1 -29 17 -10 3 -30 -20 -30 -16 0 -19 6
-15 33 4 28 4 29 -4 7 -15 -41 -13 -80 4 -80 8 0 15 -6 15 -14 0 -7 6 -19 14
-25 12 -10 17 -8 26 9 6 11 9 24 6 29 -3 4 -6 34 -7 65 -1 31 -3 56 -5 56 -2
0 -8 -10 -15 -21z"/>
<path d="M5801 6224 c-7 -8 -10 -18 -7 -21 3 -4 6 -2 6 3 0 4 7 -2 16 -14 8
-12 12 -27 9 -32 -3 -6 -1 -10 5 -10 6 0 9 -4 6 -9 -7 -11 29 -82 38 -74 3 4
6 19 6 35 0 18 5 28 15 28 9 0 12 6 9 15 -4 8 -15 15 -25 15 -10 0 -19 7 -19
15 0 8 -6 15 -12 15 -8 0 -5 7 6 15 17 13 17 15 3 21 -9 3 -21 2 -28 -2 -8 -4
-9 -3 -5 4 10 17 -7 14 -23 -4z"/>
<path d="M5160 6205 c0 -29 -6 -31 -26 -10 -18 18 -38 20 -28 3 4 -6 9 -23 11
-37 17 -127 18 -135 27 -122 7 11 12 10 25 -7 15 -21 16 -19 15 31 0 28 -2 60
-2 70 -3 27 -22 10 -22 -19 0 -13 -5 -24 -10 -24 -6 0 -10 18 -8 40 1 29 6 39
15 36 9 -4 13 5 13 29 0 19 -2 35 -5 35 -3 0 -5 -11 -5 -25z m17 -117 c-3 -8
-6 -5 -6 6 -1 11 2 17 5 13 3 -3 4 -12 1 -19z"/>
<path d="M2820 6130 c0 -6 5 -10 10 -10 6 0 10 -10 10 -21 0 -18 -2 -19 -15
-9 -8 7 -15 8 -15 2 0 -17 27 -33 44 -26 25 10 17 55 -11 65 -14 5 -23 4 -23
-1z"/>
<path d="M5896 6064 c-3 -26 -4 -50 -1 -52 3 -3 5 5 5 17 0 12 6 24 14 27 16
6 15 29 -1 45 -7 7 -12 -4 -17 -37z"/>
<path d="M2272 6075 c0 -48 12 -92 21 -77 5 6 5 17 1 24 -4 7 -11 28 -15 48
-6 33 -7 33 -7 5z"/>
<path d="M2320 6038 c-1 -13 -7 -34 -14 -47 -10 -18 -10 -29 -2 -47 6 -13 14
-24 19 -24 4 0 7 -10 7 -22 0 -17 -3 -19 -9 -10 -6 10 -10 9 -14 -7 -3 -13 -1
-19 5 -15 6 4 8 -2 3 -17 -6 -21 -4 -20 14 6 23 33 30 128 10 140 -6 4 -7 19
-4 36 4 18 3 29 -4 29 -6 0 -11 -10 -11 -22z"/>
<path d="M5661 6053 c0 -5 4 -17 9 -28 8 -18 9 -17 9 8 1 15 -3 27 -9 27 -5 0
-10 -3 -9 -7z"/>
<path d="M2825 6029 c-4 -6 -8 -45 -10 -87 -1 -42 0 -56 2 -30 2 26 11 60 18
75 l15 28 0 -28 c0 -16 -4 -26 -10 -22 -6 4 -10 -16 -10 -52 0 -37 3 -53 9
-44 7 11 11 10 20 -5 8 -15 10 2 11 72 0 75 -3 93 -16 98 -21 8 -22 8 -29 -5z"/>
<path d="M5144 6007 c-3 -13 -1 -39 4 -58 8 -31 9 -29 8 23 -1 32 -2 58 -3 58
-2 0 -5 -11 -9 -23z"/>
<path d="M5910 6018 c0 -9 -6 -19 -12 -21 -10 -4 -10 -6 0 -6 7 -1 10 -5 7
-11 -3 -5 -1 -10 5 -10 6 0 8 -4 5 -10 -3 -5 -1 -10 6 -10 6 0 9 -8 6 -20 -3
-13 -1 -18 6 -13 6 4 8 0 4 -11 -4 -10 -1 -19 8 -22 8 -3 11 -12 8 -21 -4 -11
-2 -14 6 -9 9 6 12 -3 11 -31 0 -58 2 -73 13 -66 5 3 6 -4 3 -18 -7 -23 -6
-23 8 -5 14 17 14 23 2 40 -11 18 -11 23 1 35 13 12 16 12 24 0 7 -11 9 -11 9
2 0 9 -7 22 -15 29 -8 7 -15 18 -15 24 0 6 5 4 10 -4 5 -8 10 -10 10 -4 0 6
-3 14 -7 18 -5 4 -8 11 -8 14 -2 24 -17 62 -25 62 -5 0 -7 7 -4 15 7 18 -12
20 -22 3 -5 -8 -14 2 -26 27 -9 22 -18 33 -18 23z m54 -114 c3 -8 2 -12 -4 -9
-6 3 -10 10 -10 16 0 14 7 11 14 -7z"/>
<path d="M1976 5845 c-3 -9 -6 -22 -5 -28 0 -7 5 -1 10 12 5 13 8 26 5 28 -2
2 -6 -3 -10 -12z"/>
<path d="M2000 5845 c0 -8 5 -15 10 -15 6 0 10 7 10 15 0 8 -4 15 -10 15 -5 0
-10 -7 -10 -15z"/>
<path d="M5560 5844 c0 -12 -6 -15 -25 -12 -14 3 -25 1 -25 -3 0 -5 5 -9 10
-9 6 0 10 -7 10 -15 0 -8 5 -14 12 -12 6 1 15 -9 19 -23 7 -19 7 -16 3 13 -3
22 -1 37 6 37 13 0 13 27 0 35 -5 3 -10 -1 -10 -11z"/>
<path d="M2811 5814 c0 -26 5 -46 14 -54 8 -7 15 -20 15 -29 0 -14 -2 -14 -11
-1 -8 11 -9 8 -4 -15 3 -16 6 -45 5 -62 0 -19 4 -33 11 -33 7 0 9 -12 6 -32
-6 -40 10 -78 24 -57 9 14 9 5 -6 -66 -3 -14 -1 -25 5 -25 5 0 9 -8 8 -17 -2
-33 2 -63 10 -62 18 3 32 -2 32 -11 0 -5 -7 -7 -15 -4 -16 7 -19 -4 -9 -31 6
-13 9 -14 16 -3 6 8 7 2 3 -19 -4 -18 -1 -41 5 -54 10 -17 9 -23 -1 -30 -8 -5
-10 -9 -4 -9 5 0 4 -5 -3 -12 -8 -8 -8 -17 -1 -31 8 -14 8 -18 0 -13 -6 4 -11
0 -11 -9 0 -9 -4 -13 -10 -10 -6 3 -7 -1 -4 -9 3 -9 2 -16 -3 -16 -5 0 -10
-16 -11 -35 -2 -33 -1 -34 22 -26 13 6 27 7 30 4 3 -4 6 -3 6 1 0 4 -7 14 -15
22 -22 22 -19 36 6 29 14 -5 19 -3 15 3 -4 6 0 14 8 19 8 4 16 17 18 28 1 11
6 23 10 26 5 3 10 19 12 36 2 23 0 30 -10 26 -16 -6 -19 -23 -3 -23 5 0 7 -5
3 -11 -10 -18 -24 13 -17 39 3 12 9 19 14 16 5 -3 9 4 9 16 0 13 -4 19 -11 14
-8 -4 -9 1 -4 16 4 14 3 20 -3 16 -12 -7 -23 44 -15 75 6 21 5 23 -10 10 -10
-8 -17 -9 -17 -3 0 6 5 14 10 17 6 3 10 13 10 21 0 8 -5 12 -10 9 -6 -4 -10 5
-8 23 1 16 -6 41 -15 56 -10 14 -13 26 -9 26 13 0 6 89 -9 106 -7 8 -10 32 -7
58 5 46 -5 68 -27 60 -16 -7 -32 15 -38 51 -3 25 -4 23 -6 -11z m80 -237 c-8
-8 -11 0 -10 29 1 39 1 39 11 11 7 -21 7 -32 -1 -40z"/>
<path d="M2353 5815 c-14 -10 -21 -25 -21 -45 1 -23 4 -27 14 -19 18 15 26 -4
14 -36 -7 -17 -7 -24 0 -20 6 4 10 -6 10 -24 0 -16 5 -33 10 -36 6 -4 8 -11 5
-16 -4 -5 0 -9 7 -9 9 0 9 -3 -2 -10 -10 -6 -11 -10 -2 -10 6 0 12 -7 12 -16
0 -15 28 -73 41 -84 3 -3 11 -21 19 -40 7 -19 22 -46 32 -59 10 -13 18 -30 18
-37 0 -8 5 -14 11 -14 5 0 7 5 4 10 -9 15 1 12 18 -5 13 -13 16 -11 26 17 6
17 9 34 6 36 -3 3 -5 0 -5 -7 0 -6 -10 -1 -23 11 -20 19 -21 25 -9 33 12 10
12 16 -1 45 -11 24 -16 29 -16 16 -1 -14 -4 -17 -11 -10 -12 12 -2 47 11 38 5
-3 9 6 9 20 0 14 -5 26 -10 26 -6 0 -15 12 -21 28 -10 25 -11 26 -21 8 -8 -15
-7 -21 6 -28 17 -10 22 -38 6 -38 -5 0 -10 -13 -10 -30 0 -34 -5 -37 -28 -13
-11 10 -17 33 -17 60 0 24 -4 43 -9 43 -4 0 -5 11 -2 24 4 15 0 28 -9 36 -22
18 -40 86 -27 102 7 9 7 21 -1 41 -11 26 -13 27 -34 12z m27 -20 c0 -8 -2 -15
-4 -15 -2 0 -6 7 -10 15 -3 8 -1 15 4 15 6 0 10 -7 10 -15z"/>
<path d="M2427 5813 c-8 -15 5 -83 15 -77 6 4 8 -6 5 -25 -3 -17 -1 -31 4 -31
5 0 9 5 9 10 0 23 18 8 24 -20 3 -16 10 -30 15 -30 6 0 4 15 -5 35 -17 41 -17
48 -4 40 6 -3 10 1 10 9 0 9 -4 16 -8 16 -5 0 -18 18 -31 40 -23 41 -27 45
-34 33z"/>
<path d="M1990 5803 c0 -5 6 -16 13 -25 12 -15 14 -15 24 2 7 10 9 21 6 24 -9
9 -43 7 -43 -1z"/>
<path d="M5160 5775 c0 -15 -4 -24 -10 -20 -5 3 -10 1 -10 -4 0 -6 -7 -11 -16
-11 -13 0 -15 -7 -10 -31 3 -18 2 -37 -4 -44 -9 -11 -20 -98 -20 -153 0 -13
-7 -37 -16 -54 -8 -16 -13 -32 -11 -35 3 -2 8 5 12 16 9 28 25 27 25 -1 1 -17
5 -12 15 16 7 21 11 44 8 52 -2 7 -1 19 3 26 12 19 14 58 3 58 -5 0 -9 -10
-10 -22 l0 -23 -9 23 c-10 24 -4 52 12 52 5 0 6 -4 3 -10 -3 -6 4 -10 18 -10
26 0 29 11 28 85 -1 17 4 42 10 57 9 22 8 30 -5 43 -15 15 -16 14 -16 -10z"/>
<path d="M1967 5784 c-3 -3 -3 -13 0 -22 5 -11 3 -13 -7 -7 -10 6 -12 -2 -6
-43 4 -31 3 -53 -4 -57 -5 -3 -10 0 -11 7 0 7 -5 0 -10 -17 -10 -34 -6 -77 21
-185 11 -41 15 -79 11 -85 -5 -5 -11 -19 -14 -30 -2 -11 -5 12 -6 50 -1 39 -8
93 -16 120 -10 34 -13 39 -10 15 3 -19 8 -64 11 -100 4 -50 3 -62 -6 -50 -9
12 -10 9 -5 -15 3 -16 9 -42 12 -57 3 -16 9 -28 14 -28 5 0 6 -7 3 -15 -4 -8
-2 -15 4 -15 5 0 9 -12 7 -27 -1 -16 4 -41 11 -58 7 -16 13 -25 14 -20 0 6 5
3 10 -5 8 -12 10 -11 10 7 0 12 4 25 10 28 5 3 8 16 6 28 -3 12 -5 30 -5 41
-1 11 -6 16 -15 13 -18 -7 -31 40 -17 57 6 7 8 15 5 18 -3 3 -6 52 -8 109 -1
68 -7 112 -16 126 -12 19 -12 24 -1 35 11 10 12 10 7 1 -4 -7 -2 -13 3 -13 6
0 12 -12 12 -27 1 -19 4 -12 10 20 6 31 6 54 -1 67 -14 25 -13 30 5 24 10 -4
15 0 15 16 0 12 5 31 12 43 10 20 10 21 -5 8 -15 -11 -17 -11 -17 2 0 8 -7 18
-16 21 -8 3 -12 10 -9 16 7 11 2 14 -8 4z m0 -456 c-3 -8 -6 -5 -6 6 -1 11 2
17 5 13 3 -3 4 -12 1 -19z"/>
<path d="M6020 5700 c0 -22 -15 -27 -23 -7 -4 10 -6 10 -6 0 -1 -7 9 -23 20
-34 l22 -22 13 39 c8 22 14 40 14 42 0 1 -9 2 -20 2 -13 0 -20 -7 -20 -20z"/>
<path d="M2412 5690 c0 -14 2 -19 5 -12 2 6 2 18 0 25 -3 6 -5 1 -5 -13z"/>
<path d="M6051 5658 c0 -16 -6 -28 -12 -28 -6 0 -8 -7 -5 -16 4 -10 2 -13 -6
-8 -8 5 -9 0 -5 -17 4 -13 7 -30 7 -36 0 -23 25 -13 38 14 14 32 15 55 3 69
-5 5 -11 18 -14 29 -4 15 -5 13 -6 -7z"/>
<path d="M5610 5620 c0 -5 5 -10 11 -10 5 0 7 5 4 10 -3 6 -8 10 -11 10 -2 0
-4 -4 -4 -10z"/>
<path d="M6081 5554 c0 -11 3 -14 6 -6 3 7 2 16 -1 19 -3 4 -6 -2 -5 -13z"/>
<path d="M6024 5468 c2 -31 10 -65 16 -75 10 -16 11 -16 7 5 -4 17 -1 22 14
22 10 0 19 5 19 10 0 6 -9 10 -20 10 -19 0 -24 10 -21 38 1 6 -3 20 -9 30 -9
13 -10 4 -6 -40z"/>
<path d="M5131 5444 c0 -11 3 -14 6 -6 3 7 2 16 -1 19 -3 4 -6 -2 -5 -13z"/>
<path d="M5119 5404 c0 -10 -3 -14 -5 -7 -8 18 -34 4 -34 -17 0 -11 -5 -22
-11 -26 -9 -5 -10 1 -5 20 5 19 3 26 -4 21 -6 -4 -9 -23 -8 -43 2 -27 -1 -36
-10 -34 -9 2 -11 -4 -7 -18 3 -11 2 -20 -4 -20 -6 0 -8 -16 -5 -37 4 -29 3
-34 -5 -23 -7 9 -11 10 -11 3 0 -16 17 -26 25 -13 3 5 12 10 18 10 9 0 9 -2 0
-8 -6 -4 -14 -20 -17 -35 -3 -15 -1 -25 3 -23 12 8 31 -39 26 -64 -3 -13 0
-18 7 -14 8 5 9 1 5 -10 -4 -10 -3 -15 3 -11 10 6 19 -21 23 -62 0 -12 8 -25
16 -28 21 -8 25 2 7 20 -9 9 -16 29 -16 43 -1 70 -9 145 -17 151 -12 8 -12
101 0 101 4 0 5 9 2 20 -4 12 3 38 16 65 12 25 19 48 16 52 -4 3 -7 -2 -8 -13z
m-21 -279 c-3 -3 -9 2 -12 12 -6 14 -5 15 5 6 7 -7 10 -15 7 -18z"/>
<path d="M6023 5339 c0 -35 1 -39 7 -19 l8 25 1 -28 c1 -34 -14 -64 -46 -95
-16 -14 -22 -29 -18 -41 6 -21 -3 -53 -15 -46 -4 2 -12 -7 -18 -20 -7 -15 -8
-25 -2 -25 6 0 10 5 10 12 0 6 3 8 7 5 3 -4 -6 -20 -21 -36 -28 -29 -28 -29
-6 -36 17 -5 19 -9 9 -21 -6 -8 -13 -31 -15 -52 -2 -20 0 -30 3 -22 3 8 13 21
21 29 10 10 11 16 3 19 -6 2 -11 8 -11 13 0 4 7 6 16 2 12 -4 15 0 14 18 -1
13 -2 35 -1 48 1 24 1 24 16 5 13 -16 14 -16 9 -1 -3 9 -2 17 3 17 5 0 9 12 8
27 0 15 5 28 12 28 19 0 23 9 25 53 1 23 5 39 9 36 4 -2 10 0 13 5 4 5 2 12
-4 16 -15 9 -12 35 4 35 10 0 11 7 2 35 -6 19 -16 35 -23 35 -6 0 -13 5 -15
11 -2 6 -4 -9 -5 -32z m-26 -161 c-3 -7 -5 -2 -5 12 0 14 2 19 5 13 2 -7 2
-19 0 -25z"/>
<path d="M2022 5158 c-7 -7 -12 -18 -12 -25 0 -7 -5 -13 -11 -13 -6 0 -8 -9
-3 -22 8 -28 4 -24 34 -32 14 -4 20 -4 14 1 -19 14 -23 41 -8 54 10 8 11 15 4
24 -5 6 -7 15 -3 18 3 4 4 7 2 7 -3 0 -10 -5 -17 -12z"/>
<path d="M2046 5105 c4 -8 10 -15 15 -15 4 0 6 7 3 15 -4 8 -10 15 -15 15 -4
0 -6 -7 -3 -15z"/>
<path d="M6104 5112 c3 -5 -3 -21 -14 -35 -13 -16 -16 -28 -10 -32 6 -4 8 -11
4 -16 -3 -5 -9 -7 -13 -5 -4 3 -8 -6 -9 -20 -1 -20 4 -26 27 -30 21 -5 28 -11
24 -21 -5 -12 -1 -11 15 3 12 10 22 27 22 37 0 10 4 16 9 13 10 -7 21 27 20
64 0 22 -2 20 -12 -10 -14 -41 -49 -56 -43 -18 2 15 9 22 20 20 14 -3 17 3 14
25 -2 22 -9 29 -32 31 -16 2 -26 -1 -22 -6z"/>
<path d="M1827 5103 c-4 -3 -7 -11 -7 -17 0 -6 5 -5 12 2 6 6 9 14 7 17 -3 3
-9 2 -12 -2z"/>
<path d="M1889 5107 c-1 -4 -2 -13 -3 -19 0 -7 -11 -14 -23 -16 -39 -6 -46
-103 -8 -111 11 -2 23 -8 27 -15 6 -8 8 -8 8 1 0 6 13 15 28 21 22 8 28 15 26
33 -1 13 -3 28 -3 32 -1 4 -9 7 -18 5 -14 -2 -18 4 -18 29 0 27 -13 58 -16 40z"/>
<path d="M5130 5065 c0 -5 5 -17 10 -25 5 -8 10 -10 10 -5 0 6 -5 17 -10 25
-5 8 -10 11 -10 5z"/>
<path d="M2025 5032 c5 -27 35 -72 47 -72 6 0 8 -6 5 -13 -3 -7 3 -13 14 -14
12 -1 16 3 12 14 -4 11 -2 14 8 11 8 -3 13 -13 13 -22 -2 -17 11 -22 21 -7 3
5 -1 16 -9 24 -8 8 -12 18 -8 22 4 5 1 5 -5 1 -9 -5 -13 0 -13 13 0 36 -10 48
-36 43 -13 -2 -31 1 -39 8 -12 10 -14 8 -10 -8z m45 -47 c0 -12 -20 6 -31 28
l-11 22 21 -22 c11 -12 21 -25 21 -28z m25 25 c3 -5 1 -10 -4 -10 -6 0 -11 5
-11 10 0 6 2 10 4 10 3 0 8 -4 11 -10z"/>
<path d="M2855 5010 c-4 -6 0 -22 9 -35 9 -13 16 -34 16 -45 0 -12 4 -19 9
-16 4 3 6 17 3 31 -2 14 1 32 8 40 7 9 10 19 6 22 -4 4 -10 3 -14 -2 -12 -17
-35 -17 -29 0 7 17 1 20 -8 5z"/>
<path d="M5890 5012 c0 -5 7 -9 15 -9 8 0 12 4 9 9 -3 4 -9 8 -15 8 -5 0 -9
-4 -9 -8z"/>
<path d="M2831 4964 c0 -11 3 -14 6 -6 3 7 2 16 -1 19 -3 4 -6 -2 -5 -13z"/>
<path d="M1964 4942 c-16 -25 -10 -69 13 -95 13 -14 14 -18 3 -13 -9 4 -8 2 3
-7 9 -8 17 -19 17 -26 0 -6 6 -10 13 -8 6 1 11 -5 9 -14 -1 -9 5 -22 13 -29
15 -12 22 0 8 14 -4 4 -6 25 -4 46 2 28 -4 48 -18 66 -12 15 -21 33 -21 40 0
8 -4 14 -9 14 -5 0 -11 7 -13 15 -2 13 -5 13 -14 -3z"/>
<path d="M5100 4949 c0 -5 5 -7 10 -4 6 3 10 8 10 11 0 2 -4 4 -10 4 -5 0 -10
-5 -10 -11z"/>
<path d="M5165 4918 c3 -31 1 -38 -14 -38 -14 0 -17 -9 -18 -52 l0 -53 13 35
12 35 1 -32 c1 -17 7 -33 14 -36 6 -2 4 -3 -5 -2 -16 3 -28 -14 -28 -38 0 -7
4 -6 10 3 8 12 10 11 10 -7 0 -12 -4 -23 -9 -25 -5 -2 -6 -47 -2 -103 4 -55 4
-102 0 -105 -9 -7 -6 -146 4 -156 4 -4 7 5 7 21 0 15 7 33 16 39 12 10 13 19
5 56 -15 66 -14 100 4 100 11 0 15 11 15 43 0 23 2 60 5 82 2 22 2 32 -1 23
-3 -10 -10 -18 -15 -18 -11 0 -2 38 13 57 7 8 5 30 -6 65 -8 29 -20 73 -26 98
-8 39 -9 40 -5 8z"/>
<path d="M1840 4925 c0 -8 5 -15 10 -15 6 0 10 7 10 15 0 8 -4 15 -10 15 -5 0
-10 -7 -10 -15z"/>
<path d="M5854 4928 c2 -7 -3 -21 -11 -30 -8 -9 -13 -25 -11 -35 3 -14 8 -11
26 17 23 37 28 55 13 46 -5 -4 -12 -1 -14 4 -3 6 -4 5 -3 -2z"/>
<path d="M5893 4925 c-3 -9 -3 -18 -1 -21 3 -3 8 4 11 16 6 23 -1 27 -10 5z"/>
<path d="M2825 4920 c-3 -5 -1 -10 4 -10 6 0 11 5 11 10 0 6 -2 10 -4 10 -3 0
-8 -4 -11 -10z"/>
<path d="M6122 4891 c6 -20 15 -42 20 -48 6 -7 7 -13 2 -13 -5 0 -2 -5 6 -11
11 -8 12 -12 3 -16 -15 -6 -18 -83 -3 -83 25 0 38 96 24 168 -5 23 -12 31 -34
34 -27 4 -27 4 -18 -31z"/>
<path d="M6010 4908 c0 -9 -3 -23 -6 -31 -4 -11 1 -15 20 -13 14 0 26 6 26 13
0 7 -7 10 -17 6 -9 -4 -14 -2 -10 3 3 6 2 16 -4 24 -7 13 -9 12 -9 -2z"/>
<path d="M6060 4909 c0 -5 5 -7 10 -4 6 3 10 8 10 11 0 2 -4 4 -10 4 -5 0 -10
-5 -10 -11z"/>
<path d="M2168 4864 c3 -19 1 -25 -7 -20 -7 4 -11 0 -11 -11 0 -12 -6 -6 -17
15 -8 18 -18 30 -20 28 -7 -6 39 -86 49 -86 4 0 8 -7 8 -15 0 -8 5 -15 11 -15
5 0 8 -4 5 -8 -3 -5 5 -8 17 -7 14 1 23 9 25 23 4 24 -1 26 -26 13 -14 -7 -17
-4 -16 18 0 15 4 34 9 41 6 9 4 11 -4 6 -8 -5 -12 -3 -10 5 3 24 -1 39 -10 39
-4 0 -6 -12 -3 -26z"/>
<path d="M2837 4883 c-4 -3 -7 -13 -7 -20 0 -8 -7 -21 -16 -30 -9 -9 -12 -22
-8 -32 4 -9 6 -31 5 -48 -2 -34 21 -47 33 -20 3 6 3 2 1 -10 -3 -12 -1 -24 5
-28 8 -5 11 11 10 51 -2 33 3 72 9 87 12 31 15 54 4 44 -3 -4 -11 -2 -18 3 -7
5 -15 7 -18 3z m13 -108 c0 -8 -4 -15 -10 -15 -5 0 -7 7 -4 15 4 8 8 15 10 15
2 0 4 -7 4 -15z"/>
<path d="M5971 4867 c-13 -21 -12 -21 5 -5 10 10 16 20 13 22 -3 3 -11 -5 -18
-17z"/>
<path d="M1830 4823 c0 -48 3 -63 14 -63 8 0 16 -6 19 -12 7 -21 14 -6 21 45
6 40 5 48 -11 54 -10 4 -23 14 -30 22 -10 13 -12 5 -13 -46z"/>
<path d="M5805 4848 c-4 -13 -17 -33 -28 -45 -12 -14 -15 -23 -8 -23 7 0 9 -4
6 -10 -4 -6 7 -10 26 -10 26 0 31 3 26 20 -3 11 -1 20 4 20 14 0 10 33 -5 53
-14 17 -15 17 -21 -5z m-5 -48 c0 -5 -5 -10 -11 -10 -5 0 -7 5 -4 10 3 6 8 10
11 10 2 0 4 -4 4 -10z"/>
<path d="M5860 4839 c0 -11 4 -18 10 -14 5 3 7 12 3 20 -7 21 -13 19 -13 -6z"/>
<path d="M5979 4840 c-20 -13 -5 -22 21 -12 18 7 20 10 8 14 -8 4 -21 2 -29
-2z"/>
<path d="M5940 4825 c-7 -8 -10 -15 -6 -15 3 0 -7 -14 -24 -31 -16 -17 -27
-35 -24 -40 3 -5 2 -9 -3 -9 -9 0 -58 -45 -85 -79 -10 -11 -13 -21 -8 -21 6 0
10 -5 10 -11 0 -6 -9 -9 -19 -6 -24 6 -42 -5 -45 -29 -2 -10 -7 -19 -12 -19
-5 0 -15 -4 -23 -9 -11 -7 -13 -4 -8 15 4 13 7 28 7 32 0 5 5 5 12 1 8 -5 9
-2 5 9 -4 11 -1 17 8 17 8 0 15 8 15 18 0 15 -2 15 -11 2 -9 -13 -10 -13 -6 0
2 8 11 14 20 12 8 -1 25 11 37 28 12 16 18 30 14 30 -4 0 -13 -8 -20 -17 -12
-17 -12 -17 -11 2 1 13 -4 20 -15 19 -10 -1 -15 2 -12 7 3 5 3 9 0 9 -2 0 -11
-14 -20 -30 -8 -17 -10 -28 -5 -25 5 4 9 2 9 -2 0 -9 -36 -43 -46 -43 -15 0
-45 -40 -39 -51 5 -7 4 -10 -3 -5 -18 11 -26 -16 -9 -29 21 -15 22 -35 2 -35
-8 0 -15 6 -15 14 0 8 -5 18 -12 22 -6 4 -8 3 -5 -3 7 -11 -28 -45 -37 -36 -6
6 -10 -12 -7 -29 0 -5 -8 -8 -18 -8 -10 0 -22 -7 -25 -16 -8 -22 -8 -26 4 -19
6 3 13 -1 16 -9 7 -18 34 -22 34 -6 0 17 28 11 39 -7 6 -11 11 -13 11 -5 0 7
4 11 9 7 5 -3 12 -1 15 4 4 5 -2 12 -13 16 -17 5 -36 43 -26 53 2 2 15 -4 30
-14 17 -11 22 -20 15 -24 -8 -5 -6 -9 5 -13 11 -5 14 -3 9 5 -5 7 -2 9 9 5 12
-4 15 -1 12 14 -4 18 -2 19 12 7 9 -7 14 -8 10 -2 -4 7 2 14 16 18 23 5 61 58
50 70 -3 3 5 6 19 6 13 0 35 11 48 26 21 21 22 27 10 34 -12 8 -11 10 6 10 23
0 57 29 89 74 11 15 25 33 31 40 6 6 9 17 6 25 -3 8 0 11 6 7 6 -3 13 -2 17 4
3 6 -4 10 -18 10 -30 0 -40 10 -26 27 6 7 9 13 6 13 -2 0 -10 -7 -17 -15z
m-270 -210 c-7 -8 -17 -15 -23 -15 -6 0 -2 7 9 15 25 19 30 19 14 0z m97 -20
c0 -8 -7 -15 -15 -15 -12 0 -12 3 -2 15 7 8 13 15 15 15 1 0 2 -7 2 -15z"/>
<path d="M2931 4816 c-10 -11 -10 -20 0 -38 7 -13 13 -45 15 -73 1 -27 0 -37
-3 -22 -4 23 -8 27 -26 21 -12 -3 -22 -7 -22 -8 0 0 2 -44 5 -96 4 -78 8 -95
22 -98 12 -2 15 3 11 18 -3 11 0 20 6 20 7 0 11 21 11 54 0 47 3 54 22 59 12
4 19 9 15 13 -4 4 -2 13 4 21 9 9 8 17 0 27 -7 8 -9 25 -6 39 4 16 1 30 -10
41 -9 9 -11 16 -5 16 6 0 8 5 5 10 -9 14 -31 12 -44 -4z m36 -58 c-3 -8 -6 -5
-6 6 -1 11 2 17 5 13 3 -3 4 -12 1 -19z"/>
<path d="M5034 4784 c0 -36 -5 -51 -22 -64 -21 -18 -31 -60 -13 -60 17 0 19
-39 3 -45 -14 -5 -14 -7 -2 -15 11 -7 17 -4 22 10 13 35 38 24 38 -16 0 -30 2
-33 14 -21 13 13 26 106 24 172 0 17 -1 40 0 53 0 15 -6 22 -18 22 -10 0 -25
2 -33 5 -11 5 -14 -4 -13 -41z m53 -56 c-3 -7 -5 -2 -5 12 0 14 2 19 5 13 2
-7 2 -19 0 -25z m-47 -77 c0 -6 -4 -13 -10 -16 -5 -3 -10 1 -10 9 0 9 5 16 10
16 6 0 10 -4 10 -9z"/>
<path d="M2200 4810 c0 -5 5 -10 11 -10 5 0 7 5 4 10 -3 6 -8 10 -11 10 -2 0
-4 -4 -4 -10z"/>
<path d="M5015 4799 c-4 -6 -5 -12 -2 -15 2 -3 7 2 10 11 7 17 1 20 -8 4z"/>
<path d="M2084 4786 c5 -14 2 -17 -9 -12 -21 8 -19 -14 3 -30 16 -13 16 -13
-3 -14 -17 0 -17 -2 -5 -10 8 -5 11 -10 6 -10 -5 0 -1 -9 9 -20 10 -11 22 -17
27 -14 4 3 7 2 6 -3 -2 -4 17 -28 42 -53 24 -25 41 -40 37 -33 -4 6 -2 15 4
18 5 4 8 14 5 22 -4 9 -2 11 6 7 22 -14 -4 17 -48 58 -24 22 -44 45 -44 50 0
6 -10 22 -22 36 -14 18 -19 21 -14 8z"/>
<path d="M2233 4732 c-23 -25 -19 -51 9 -68 7 -5 8 -3 3 6 -5 9 -2 10 14 5 12
-4 21 -2 21 4 0 6 7 8 15 5 21 -8 19 -2 -12 38 l-28 34 -22 -24z m4 -34 c-3
-8 -6 -5 -6 6 -1 11 2 17 5 13 3 -3 4 -12 1 -19z"/>
<path d="M2900 4724 c0 -8 5 -12 10 -9 6 4 8 11 5 16 -9 14 -15 11 -15 -7z"/>
<path d="M1860 4709 c0 -5 5 -7 10 -4 6 3 10 8 10 11 0 2 -4 4 -10 4 -5 0 -10
-5 -10 -11z"/>
<path d="M6169 4698 c-1 -13 -2 -40 -1 -60 1 -35 -1 -37 -19 -28 -10 6 -19 15
-19 21 0 6 -5 7 -11 3 -6 -3 -9 -15 -6 -25 3 -11 1 -17 -4 -13 -12 7 -11 -7 1
-26 5 -8 5 -19 0 -25 -5 -6 -12 -33 -15 -61 -2 -27 -6 -60 -8 -74 -1 -14 2
-31 8 -39 8 -12 6 -13 -7 -8 -19 7 -25 -7 -8 -18 5 -3 17 7 27 22 10 15 21 30
25 33 10 8 30 87 34 140 9 96 13 180 8 180 -2 0 -5 -10 -5 -22z m-39 -260 c0
-5 -4 -8 -10 -8 -5 0 -10 10 -10 23 0 18 2 19 10 7 5 -8 10 -18 10 -22z"/>
<path d="M1821 4679 c-3 -35 12 -77 28 -82 9 -2 25 -19 34 -38 16 -34 16 -34
-11 -43 -36 -12 -36 -10 -22 -53 16 -48 31 -65 29 -33 -1 14 5 40 13 58 15 33
13 92 -3 92 -5 0 -9 7 -9 16 0 8 5 12 10 9 17 -11 11 11 -10 35 -11 13 -20 18
-20 12 0 -25 -29 -11 -33 16 -2 15 -5 20 -6 11z"/>
<path d="M2840 4662 c0 -12 -4 -22 -10 -22 -5 0 -10 -17 -10 -37 -1 -21 -7
-56 -15 -78 -19 -53 -19 -53 10 -47 20 3 25 0 25 -17 0 -25 -20 -29 -21 -3 0
10 -4 7 -11 -11 -5 -15 -7 -35 -2 -45 4 -9 6 -23 5 -31 -1 -7 2 -10 9 -6 7 5
10 -3 8 -22 -2 -21 1 -27 12 -24 8 2 20 4 27 4 17 0 5 17 -13 17 -8 0 -14 5
-14 10 0 6 7 10 16 10 14 0 15 9 9 63 -4 34 -8 104 -10 155 -2 52 -6 97 -9
100 -3 3 -6 -4 -6 -16z"/>
<path d="M4967 4661 c-4 -17 -3 -21 5 -13 5 5 8 16 6 23 -3 8 -7 3 -11 -10z"/>
<path d="M6110 4670 c0 -5 5 -10 10 -10 6 0 10 5 10 10 0 6 -4 10 -10 10 -5 0
-10 -4 -10 -10z"/>
<path d="M2322 4639 c-1 -19 3 -40 7 -48 16 -25 23 26 8 55 l-14 26 -1 -33z"/>
<path d="M2266 4652 c-4 -7 -2 -12 3 -12 6 0 11 -8 11 -17 0 -10 7 -27 15 -37
17 -22 20 -15 6 12 -5 9 -13 28 -18 41 -6 17 -12 21 -17 13z"/>
<path d="M2980 4639 c0 -5 -4 -8 -8 -5 -4 2 5 -22 21 -54 15 -33 33 -62 39
-66 7 -5 8 -3 4 5 -5 8 -1 14 11 17 13 4 19 13 17 27 -1 12 -3 26 -3 31 -1 5
-7 3 -15 -3 -10 -8 -16 -9 -21 -1 -8 13 3 32 15 25 4 -3 6 4 3 16 -5 18 -7 19
-15 5 -11 -20 -28 -21 -28 -1 0 8 -4 15 -10 15 -5 0 -10 -5 -10 -11z"/>
<path d="M4970 4611 c0 -23 -16 -37 -22 -19 -3 7 -7 5 -11 -6 -4 -10 -3 -15 3
-11 6 3 10 -1 10 -9 0 -9 -3 -15 -7 -13 -5 1 -8 -2 -8 -8 0 -5 3 -9 8 -7 4 1
7 -5 7 -13 0 -8 4 -15 10 -15 5 0 7 -8 4 -17 -5 -14 -4 -15 4 -4 6 8 8 27 6
44 -3 24 -1 27 11 17 13 -11 13 -8 4 19 -6 17 -8 38 -5 46 3 8 1 15 -4 15 -6
0 -10 -9 -10 -19z"/>
<path d="M2236 4608 c4 -7 3 -8 -4 -4 -17 10 -32 -2 -25 -19 6 -17 33 -20 33
-5 0 7 7 7 21 0 20 -11 20 -11 4 14 -17 25 -44 38 -29 14z"/>
<path d="M2356 4587 c-4 -20 -12 -24 -43 -24 -38 0 -93 -6 -93 -9 0 -1 23 -16
50 -33 31 -19 50 -26 51 -18 0 6 4 3 8 -8 5 -11 4 -23 -1 -26 -5 -3 -2 -12 7
-19 8 -7 18 -10 22 -6 3 3 1 6 -5 6 -7 0 -12 5 -12 10 0 6 6 10 14 10 8 0 16
4 18 10 2 6 8 6 18 -1 13 -8 13 -11 -4 -24 -13 -10 -16 -20 -11 -32 8 -17 8
-17 12 0 5 18 23 24 23 7 0 -5 7 -10 15 -10 21 0 19 -20 -2 -20 -10 -1 -3 -7
16 -15 41 -18 34 -19 61 5 25 22 40 18 40 -10 0 -21 -19 -30 -52 -24 -22 5
-22 5 -4 -10 21 -17 51 -22 42 -7 -8 12 20 22 39 15 25 -10 6 27 -29 58 -30
27 -53 37 -41 19 3 -5 1 -12 -4 -15 -5 -3 -11 1 -15 9 -3 8 -1 15 5 15 6 0 7
5 3 12 -5 7 -3 8 7 2 11 -6 10 -2 -2 16 -20 31 -36 36 -42 13 -3 -10 -5 -4 -4
12 1 19 -2 29 -10 28 -7 -2 -13 2 -13 8 0 6 -7 9 -15 6 -10 -5 -16 4 -21 29
-8 42 -20 51 -28 21z"/>
<path d="M5102 4580 c0 -19 2 -27 5 -17 2 9 2 25 0 35 -3 9 -5 1 -5 -18z"/>
<path d="M1832 4550 c0 -19 2 -27 5 -17 2 9 2 25 0 35 -3 9 -5 1 -5 -18z"/>
<path d="M5080 4527 c0 -19 16 -31 24 -18 3 5 -1 14 -9 21 -12 10 -15 10 -15
-3z"/>
<path d="M5045 4510 c-4 -14 -11 -34 -15 -45 -4 -11 -3 -31 2 -44 7 -18 5 -22
-6 -18 -14 6 -23 -28 -30 -118 -2 -21 -8 -41 -15 -43 -14 -5 -15 -29 -1 -34 5
-1 7 -13 3 -26 -3 -13 -11 -21 -18 -18 -17 6 -29 -24 -16 -37 6 -6 4 -19 -7
-36 -16 -25 -16 -25 1 -12 15 12 17 11 17 -8 0 -19 -15 -27 -42 -22 -5 0 -8
-8 -8 -19 0 -11 -6 -19 -12 -18 -7 2 -13 -4 -13 -12 0 -17 4 -17 58 -6 25 6
47 4 63 -3 19 -8 24 -8 18 0 -4 7 -1 17 7 23 8 6 21 26 28 44 7 17 18 32 23
32 6 0 8 9 5 20 -3 11 0 18 7 17 6 -1 10 4 9 11 -2 6 2 12 8 12 5 0 7 5 4 10
-5 8 -11 7 -21 -1 -12 -9 -14 -6 -14 20 0 17 -4 31 -10 31 -5 0 -7 -6 -4 -13
2 -7 -4 -22 -16 -32 -21 -19 -28 -41 -9 -29 8 4 9 -1 4 -17 -9 -30 -24 -49
-39 -49 -6 0 -5 4 3 9 12 8 12 12 2 25 -9 11 -10 20 -2 35 6 11 11 29 11 41 0
12 5 18 10 15 8 -5 16 49 11 78 -1 5 3 6 9 2 10 -6 14 13 10 49 -1 10 3 22 9
26 6 3 13 30 15 59 2 28 6 55 10 58 3 3 -3 13 -13 22 -10 9 -20 23 -23 31 -3
10 -7 7 -13 -10z m0 -189 c-3 -2 -5 2 -5 10 0 12 -2 12 -10 -1 -15 -24 -22 -5
-8 25 l12 27 8 -28 c4 -15 5 -30 3 -33z"/>
<path d="M3051 4504 c0 -11 3 -14 6 -6 3 7 2 16 -1 19 -3 4 -6 -2 -5 -13z"/>
<path d="M3820 4489 c0 -6 -7 -8 -15 -5 -9 3 -34 -2 -56 -11 -31 -12 -62 -15
-132 -11 -54 3 -82 2 -67 -3 21 -7 19 -8 -12 -6 -26 2 -40 -2 -50 -15 -7 -10
-18 -18 -25 -18 -6 0 -15 -4 -18 -10 -3 -5 0 -7 9 -4 10 4 17 -2 22 -20 3 -14
10 -23 15 -20 5 3 7 10 4 15 -4 5 -2 9 4 9 6 0 8 7 5 15 -6 13 7 15 97 10 57
-3 112 -8 121 -11 9 -3 28 2 42 11 14 9 31 13 37 9 7 -4 9 -3 6 3 -4 6 10 13
33 17 37 6 57 26 26 26 -8 0 -16 7 -20 15 -6 17 -26 20 -26 4z"/>
<path d="M3939 4492 c-21 -2 -26 -7 -22 -23 6 -22 14 -24 31 -7 9 9 12 8 12
-5 0 -10 8 -17 20 -17 11 0 20 -3 20 -7 0 -5 23 -9 52 -10 35 -1 56 -7 64 -17
6 -9 21 -16 32 -16 11 0 24 -4 27 -10 9 -14 26 -13 23 2 -2 6 6 14 17 16 33 7
37 18 10 30 -19 9 -25 9 -25 0 0 -6 -11 -1 -24 11 -20 19 -28 21 -46 11 -11
-6 -29 -9 -38 -7 -16 4 -16 5 1 6 16 1 25 21 10 21 -5 0 -30 7 -56 15 -26 8
-45 10 -42 5 7 -12 -1 -13 -23 -2 -9 4 -29 6 -43 4z"/>
<path d="M4902 4492 c3 -8 -32 -64 -45 -73 -4 -3 -1 -12 8 -19 17 -14 20 -40
5 -40 -5 0 -20 -11 -33 -24 -14 -14 -28 -22 -31 -19 -3 4 -6 1 -6 -6 0 -7 -4
-10 -8 -7 -4 2 -8 -4 -8 -14 0 -10 5 -16 11 -13 5 4 2 -3 -7 -14 -24 -26 -23
-31 7 -29 22 1 25 4 19 29 -3 17 -1 27 6 27 6 0 8 -4 5 -10 -10 -17 5 -11 27
10 12 11 18 20 14 20 -5 0 3 15 18 34 14 19 26 39 26 44 0 5 7 15 15 22 10 8
12 18 6 28 -5 8 -6 23 -4 32 3 10 -2 20 -11 23 -9 4 -15 3 -14 -1z"/>
<path d="M3067 4468 c-4 -12 -2 -27 3 -33 6 -7 7 -14 4 -18 -3 -3 3 -10 14
-16 15 -8 23 -7 31 3 6 7 7 17 3 22 -4 4 1 2 11 -5 24 -19 21 -6 -5 20 -13 12
-16 18 -8 14 10 -6 8 -1 -4 13 -24 28 -42 28 -49 0z"/>
<path d="M2967 4453 c-4 -3 -7 -20 -7 -36 0 -22 -4 -28 -15 -23 -13 5 -15 -2
-14 -39 2 -25 7 -45 12 -45 5 0 7 11 5 24 -4 19 -1 22 14 18 16 -4 18 2 15 52
-1 31 -2 56 -3 56 0 0 -4 -3 -7 -7z"/>
<path d="M1888 4405 c-9 -17 -14 -43 -11 -60 4 -24 2 -27 -7 -15 -10 12 -11
12 -5 -5 4 -11 12 -42 17 -69 5 -27 16 -59 24 -71 8 -12 11 -25 7 -30 -5 -4
-2 -5 6 0 11 6 13 2 9 -19 -3 -14 1 -34 8 -43 7 -10 14 -24 14 -31 0 -7 7 -20
16 -29 8 -9 13 -22 10 -29 -3 -8 0 -13 6 -11 10 2 49 -56 47 -71 -1 -4 2 -17
6 -29 7 -21 17 -28 39 -24 5 1 5 -6 2 -16 -4 -9 -4 -14 0 -10 4 3 22 -7 41
-23 18 -17 37 -30 42 -30 18 0 -3 48 -26 59 -13 6 -21 16 -18 21 6 10 -59 103
-67 95 -6 -6 -32 76 -30 92 2 6 -3 15 -9 19 -8 5 -10 3 -4 -7 4 -8 -7 1 -25
19 -26 26 -30 35 -20 46 18 23 8 61 -17 64 -27 4 -31 22 -5 23 12 0 13 2 3 6
-8 3 -20 -2 -28 -13 -11 -16 -13 -16 -13 -1 0 9 9 21 20 27 11 6 20 18 20 26
0 8 -4 12 -10 9 -6 -4 -10 11 -11 37 0 24 -4 61 -8 83 l-7 40 -16 -30z m172
-501 c0 -14 -3 -14 -15 -4 -8 7 -15 14 -15 16 0 2 7 4 15 4 8 0 15 -7 15 -16z"/>
<path d="M4505 4420 c3 -5 8 -10 11 -10 2 0 4 5 4 10 0 6 -5 10 -11 10 -5 0
-7 -4 -4 -10z"/>
<path d="M5456 4413 c-11 -11 -6 -23 9 -23 8 0 15 4 15 9 0 13 -16 22 -24 14z"/>
<path d="M1851 4394 c0 -11 3 -14 6 -6 3 7 2 16 -1 19 -3 4 -6 -2 -5 -13z"/>
<path d="M4243 4395 c-30 -22 24 -70 57 -50 6 4 18 -1 26 -11 14 -18 14 -18 4
4 -6 12 -18 22 -27 22 -11 0 -14 7 -11 24 4 20 1 24 -15 23 -10 -1 -26 -6 -34
-12z"/>
<path d="M3113 4384 c-5 -13 -7 -13 -14 -2 -5 8 -9 9 -9 2 0 -6 7 -17 16 -24
12 -11 15 -11 12 0 -2 7 3 15 10 17 9 4 11 -2 7 -20 -4 -14 -2 -28 4 -31 6 -4
11 -16 11 -28 0 -11 8 -22 20 -25 11 -3 20 -9 20 -14 0 -16 93 -149 107 -152
4 -1 7 -5 6 -9 -2 -4 5 -4 13 -1 11 4 15 2 12 -7 -4 -12 29 -55 42 -55 13 -1
30 -17 25 -25 -5 -8 76 -20 85 -13 7 6 -48 53 -62 53 -6 0 -5 -7 3 -17 13 -16
12 -17 -3 -5 -9 8 -14 20 -11 28 3 8 0 14 -7 14 -6 0 -9 4 -6 9 3 5 -1 11 -9
15 -8 3 -15 10 -15 16 0 6 -17 27 -37 47 -21 20 -38 40 -38 44 0 4 -4 11 -9
16 -5 5 -6 -2 -3 -17 6 -24 5 -23 -18 5 -26 32 -32 51 -14 39 7 -4 4 7 -7 25
-20 33 -37 42 -28 14 5 -14 4 -15 -4 -4 -5 7 -7 22 -4 34 3 14 1 18 -6 13 -7
-4 -12 -16 -12 -27 0 -11 -7 -19 -16 -19 -14 0 -16 9 -12 50 3 27 1 47 -4 44
-4 -3 -11 2 -14 10 -8 21 -23 20 -31 0z m151 -199 c10 -8 22 -12 27 -10 4 3
10 2 13 -3 11 -17 -43 -10 -59 8 -21 23 -9 26 19 5z m110 -106 c-3 -5 -10 -7
-15 -3 -5 3 -7 10 -3 15 3 5 10 7 15 3 5 -3 7 -10 3 -15z m87 -66 c13 -16 12
-17 -3 -4 -10 7 -18 15 -18 17 0 8 8 3 21 -13z"/>
<path d="M4440 4386 c5 -5 10 -16 10 -24 0 -10 -7 -8 -26 7 -32 25 -84 28 -84
6 0 -8 5 -15 10 -15 6 0 10 5 10 10 0 15 37 12 43 -4 4 -9 -3 -16 -19 -20 -29
-8 -22 -28 8 -24 12 2 23 -3 25 -9 3 -8 -4 -13 -17 -13 -16 0 -20 -4 -16 -16
3 -9 6 -18 6 -20 0 -2 6 -4 13 -4 16 0 61 52 65 76 2 10 8 21 13 22 21 8 7 30
-21 34 -21 3 -27 1 -20 -6z"/>
<path d="M5560 4389 c0 -5 5 -7 10 -4 6 3 10 8 10 11 0 2 -4 4 -10 4 -5 0 -10
-5 -10 -11z"/>
<path d="M3417 4375 c3 -10 0 -15 -8 -13 -7 2 -14 -4 -14 -12 -2 -22 16 -54
24 -43 3 5 14 12 24 16 9 3 17 12 17 19 0 9 -3 8 -10 -2 -6 -9 -10 -10 -10 -3
0 6 5 15 10 18 16 10 12 25 -5 19 -8 -4 -15 -1 -15 5 0 6 -4 11 -10 11 -5 0
-7 -7 -3 -15z"/>
<path d="M4825 4373 c-7 -21 -7 -23 9 -17 20 8 27 31 10 31 -7 0 -16 -7 -19
-14z"/>
<path d="M6132 4370 c-14 -23 -16 -47 -3 -54 5 -4 7 3 4 14 -3 11 0 27 7 35 7
9 11 17 9 20 -3 2 -10 -5 -17 -15z"/>
<path d="M5166 4342 c-4 -13 -5 -26 -2 -29 10 -11 18 4 14 29 l-4 23 -8 -23z"/>
<path d="M5473 4346 c5 -16 21 -17 41 -3 17 13 16 14 -13 14 -17 0 -30 -5 -28
-11z"/>
<path d="M5110 4323 c0 -13 5 -23 10 -23 13 0 13 11 0 30 -8 12 -10 11 -10 -7z"/>
<path d="M3498 4313 c6 -2 18 -2 25 0 6 3 1 5 -13 5 -14 0 -19 -2 -12 -5z"/>
<path d="M6060 4312 c0 -4 10 -9 22 -9 18 -2 20 0 8 7 -18 12 -30 13 -30 2z"/>
<path d="M2890 4301 c0 -5 5 -13 10 -16 6 -3 10 -2 10 4 0 5 -4 13 -10 16 -5
3 -10 2 -10 -4z"/>
<path d="M3544 4295 c3 -9 6 -19 6 -21 0 -2 8 -4 18 -4 14 0 15 2 2 10 -12 8
-10 10 8 10 15 0 21 -4 16 -12 -5 -7 -3 -8 5 -3 17 10 1 24 -34 31 -22 4 -26
2 -21 -11z"/>
<path d="M4126 4301 c2 -2 -7 -12 -21 -21 -24 -16 -25 -18 -8 -31 9 -8 14 -9
10 -3 -4 7 4 11 23 10 32 -1 37 -22 11 -42 -11 -9 -11 -13 3 -26 8 -9 13 -25
11 -36 -5 -30 10 -77 25 -74 8 2 10 -3 6 -13 -3 -9 -2 -13 4 -10 6 3 11 25 11
48 l2 42 7 -40 7 -40 2 48 c0 26 -3 47 -9 47 -5 0 -9 3 -9 8 4 22 -3 32 -22
32 -11 0 -17 5 -14 10 4 6 12 7 18 4 8 -5 8 -3 0 7 -17 17 -17 32 -1 23 7 -5
23 -8 35 -7 13 1 37 1 53 2 19 1 30 6 30 15 0 15 -35 32 -57 28 -7 -2 -23 3
-35 9 -22 12 -92 20 -82 10z m25 -30 c-8 -5 -20 -7 -28 -4 -21 8 -15 13 15 13
20 0 23 -3 13 -9z"/>
<path d="M2856 4293 c-10 -10 -7 -63 4 -63 5 0 7 -6 4 -13 -2 -7 2 -21 10 -32
13 -18 14 -18 11 7 -2 15 -6 32 -10 37 -3 6 -2 19 3 28 10 18 -9 49 -22 36z"/>
<path d="M4326 4284 c-9 -22 3 -32 14 -14 12 19 12 30 1 30 -5 0 -12 -7 -15
-16z"/>
<path d="M6121 4284 c0 -11 3 -14 6 -6 3 7 2 16 -1 19 -3 4 -6 -2 -5 -13z"/>
<path d="M2992 4278 c-15 -15 -16 -45 -2 -53 9 -5 12 1 9 21 0 4 5 10 13 15 9
6 10 11 2 19 -7 7 -14 6 -22 -2z"/>
<path d="M3400 4280 c-13 -8 -12 -10 3 -10 9 0 17 5 17 10 0 12 -1 12 -20 0z"/>
<path d="M5111 4264 c-6 -15 -14 -24 -18 -21 -3 4 0 13 7 22 7 8 8 15 2 15 -5
0 -12 -7 -16 -15 -7 -19 3 -47 14 -40 5 3 11 1 15 -5 8 -13 35 13 35 33 0 8
-6 20 -13 26 -11 8 -17 5 -26 -15z"/>
<path d="M6063 4282 c-16 -10 -19 -46 -9 -89 8 -33 -1 -42 -21 -22 -7 7 -9 0
-7 -25 2 -26 -3 -40 -17 -49 -10 -8 -16 -17 -12 -21 4 -4 1 -11 -7 -16 -12 -8
-13 -10 -1 -10 9 0 7 -6 -7 -19 -12 -10 -22 -22 -22 -26 0 -5 9 0 19 10 22 19
20 24 22 -47 0 -21 1 -21 10 -5 6 9 7 22 4 27 -3 6 1 10 9 10 9 0 17 5 17 10
1 6 2 16 3 23 1 6 -3 15 -9 19 -7 5 -6 14 3 28 6 11 12 27 12 36 0 10 5 14 15
10 15 -5 17 1 18 51 1 12 5 20 9 17 4 -3 8 7 8 21 0 14 4 24 9 21 5 -4 6 5 2
21 -8 29 -27 39 -48 25z m4 -44 c-3 -8 -6 -5 -6 6 -1 11 2 17 5 13 3 -3 4 -12
1 -19z"/>
<path d="M2951 4264 c0 -11 3 -14 6 -6 3 7 2 16 -1 19 -3 4 -6 -2 -5 -13z"/>
<path d="M3438 4273 c7 -3 16 -2 19 1 4 3 -2 6 -13 5 -11 0 -14 -3 -6 -6z"/>
<path d="M3474 4271 c3 -5 16 -7 28 -3 13 3 19 1 15 -5 -4 -6 2 -13 12 -16 14
-3 17 0 14 14 -4 14 -15 19 -40 19 -19 0 -32 -4 -29 -9z"/>
<path d="M3350 4260 c0 -5 7 -10 15 -10 8 0 15 5 15 10 0 6 -7 10 -15 10 -8 0
-15 -4 -15 -10z"/>
<path d="M3649 4261 c10 -6 1 -11 -29 -16 -46 -8 -43 -22 5 -29 17 -3 40 -8
51 -11 12 -4 25 -2 28 4 8 13 -37 61 -56 61 -10 0 -10 -2 1 -9z m45 -36 c3 -8
1 -15 -4 -15 -6 0 -10 7 -10 15 0 8 2 15 4 15 2 0 6 -7 10 -15z"/>
<path d="M4743 4242 c-10 -6 -10 -16 -1 -44 8 -28 14 -34 23 -25 17 18 15 49
-3 42 -10 -4 -13 0 -9 15 3 11 4 20 4 20 -1 0 -7 -4 -14 -8z"/>
<path d="M2922 4220 c0 -14 2 -19 5 -12 2 6 2 18 0 25 -3 6 -5 1 -5 -13z"/>
<path d="M3720 4196 c0 -8 5 -18 10 -21 6 -3 10 1 10 9 0 8 -4 18 -10 21 -5 3
-10 -1 -10 -9z"/>
<path d="M2984 4186 c-13 -14 7 -51 21 -38 5 4 5 -1 2 -10 -4 -11 0 -19 14
-23 10 -4 19 -15 19 -26 0 -11 4 -18 9 -15 5 4 12 0 15 -6 3 -7 3 7 0 32 -7
51 -11 60 -26 60 -6 0 -18 8 -27 19 -12 14 -19 16 -27 7z"/>
<path d="M4698 4193 c-3 -5 1 -24 8 -43 l13 -35 0 37 c1 34 -12 59 -21 41z"/>
<path d="M3696 4163 c4 -15 10 -35 15 -43 7 -13 8 -12 9 3 0 11 8 17 23 17 20
1 20 2 4 11 -9 5 -22 7 -27 4 -6 -3 -10 1 -10 9 0 8 -5 18 -10 21 -7 4 -8 -3
-4 -22z"/>
<path d="M2930 4168 c1 -19 25 -48 41 -48 11 0 11 2 -1 10 -8 5 -11 10 -7 10
11 0 -12 40 -23 40 -6 0 -10 -6 -10 -12z"/>
<path d="M4656 4126 c7 -18 -23 -47 -41 -40 -9 4 -15 0 -15 -10 0 -25 36 -19
59 10 25 31 27 54 6 54 -8 0 -12 -6 -9 -14z"/>
<path d="M3748 4124 c6 -3 12 -14 12 -24 0 -10 6 -20 14 -23 11 -4 12 1 7 21
-5 16 -15 28 -27 29 -10 2 -13 0 -6 -3z"/>
<path d="M6063 4095 c-3 -9 -3 -18 -1 -21 3 -3 8 4 11 16 6 23 -1 27 -10 5z"/>
<path d="M3081 4050 c3 -32 -1 -51 -11 -45 -5 3 -10 1 -10 -4 0 -12 16 -13 44
-2 18 7 18 8 2 14 -9 4 -15 10 -12 15 2 4 0 14 -5 22 -9 13 -10 13 -8 0z"/>
<path d="M2950 4036 c0 -8 5 -18 10 -21 6 -3 10 1 10 9 0 8 -4 18 -10 21 -5 3
-10 -1 -10 -9z"/>
<path d="M4202 4038 c-18 -18 -14 -38 8 -38 15 0 19 6 18 25 -3 28 -8 31 -26
13z"/>
<path d="M3750 4029 c0 -5 -4 -7 -10 -4 -5 3 -10 -1 -10 -9 0 -10 9 -16 24
-16 13 0 26 -6 29 -12 7 -22 17 -3 10 21 -4 17 -8 19 -14 9 -7 -10 -9 -9 -9 5
0 9 -4 17 -10 17 -5 0 -10 -5 -10 -11z"/>
<path d="M4550 4023 c0 -7 -8 -16 -17 -21 -11 -7 -18 -25 -19 -53 -2 -40 -1
-42 12 -25 7 10 11 24 7 29 -4 6 0 8 9 4 22 -8 29 2 18 23 -8 15 -4 20 21 29
17 6 35 8 39 6 5 -3 11 -1 14 4 3 5 -14 11 -39 13 -30 2 -45 -1 -45 -9z"/>
<path d="M4584 3995 c-10 -8 -14 -15 -8 -15 6 0 17 7 24 15 16 19 9 19 -16 0z"/>
<path d="M2970 3990 c0 -4 6 -12 13 -18 10 -8 13 -6 13 7 0 10 -6 18 -13 18
-7 0 -13 -4 -13 -7z"/>
<path d="M3495 3980 c3 -5 11 -10 16 -10 6 0 7 5 4 10 -3 6 -11 10 -16 10 -6
0 -7 -4 -4 -10z"/>
<path d="M5960 3979 c0 -5 -4 -7 -10 -4 -5 3 -7 0 -4 -8 3 -9 -4 -22 -18 -31
-19 -14 -20 -16 -4 -16 12 0 16 -5 12 -15 -3 -9 0 -15 10 -15 9 0 12 -5 8 -12
-5 -7 -3 -8 5 -4 7 5 10 10 7 14 -3 3 2 11 12 19 10 9 11 11 2 7 -13 -7 -13
-5 -2 8 9 11 10 23 2 42 -10 27 -20 34 -20 15z"/>
<path d="M3074 3961 c-18 -11 -35 -24 -38 -29 -8 -14 4 -43 15 -37 4 3 6 11 3
18 -2 7 5 22 17 33 16 14 23 15 26 7 6 -16 53 -17 53 -2 0 6 -9 8 -20 4 -12
-4 -20 -2 -20 5 0 6 4 9 9 5 5 -3 12 -1 16 5 10 17 -28 11 -61 -9z"/>
<path d="M3430 3973 c0 -11 43 -48 53 -45 4 1 10 -5 13 -13 6 -15 24 -21 24
-7 -1 26 -90 90 -90 65z"/>
<path d="M3737 3961 c-3 -13 5 -26 25 -41 l30 -22 -12 23 c-11 19 -10 21 4 16
25 -10 19 9 -9 27 -31 20 -32 20 -38 -3z"/>
<path d="M4180 3970 c0 -12 25 -30 42 -30 11 0 18 7 18 20 0 16 -6 20 -30 18
-16 -1 -30 -5 -30 -8z"/>
<path d="M4932 3974 c-6 -3 -10 -9 -7 -14 3 -4 -11 -4 -29 0 -43 9 -59 -14
-25 -38 18 -13 20 -21 15 -58 -3 -24 -1 -46 4 -49 13 -8 30 28 30 64 0 40 9
60 32 72 15 8 19 8 14 0 -4 -6 -2 -11 3 -11 6 0 11 5 11 11 0 6 7 9 15 5 8 -3
15 -1 15 4 0 6 -6 10 -12 10 -7 0 -22 2 -33 5 -11 2 -26 2 -33 -1z"/>
<path d="M4460 3960 c-8 -5 -12 -12 -8 -15 9 -9 48 4 48 16 0 12 -21 11 -40
-1z"/>
<path d="M3534 3928 c8 -18 19 -45 25 -60 6 -16 16 -28 22 -28 7 0 5 8 -5 19
-11 12 -16 31 -14 52 2 19 -1 34 -7 34 -5 0 -16 4 -23 8 -9 6 -9 0 2 -25z"/>
<path d="M4433 3922 c-23 -2 -33 -9 -34 -20 -2 -41 -6 -62 -14 -69 -4 -5 -6 7
-3 25 2 17 1 32 -4 32 -11 0 -10 -67 1 -75 5 -3 19 9 32 26 14 20 24 27 29 19
4 -7 12 0 20 20 8 19 18 29 26 26 8 -3 14 -2 14 3 0 12 -28 17 -67 13z"/>
<path d="M3092 3900 c-23 -22 -28 -45 -12 -55 6 -3 10 5 10 19 0 14 8 29 17
35 10 5 15 12 12 15 -3 3 -15 -3 -27 -14z"/>
<path d="M3137 3895 c-26 -23 -37 -55 -18 -55 12 0 35 29 37 47 2 8 6 18 10
21 4 4 4 -1 1 -10 -4 -10 -2 -18 3 -18 12 0 13 27 2 33 -4 3 -19 -5 -35 -18z"/>
<path d="M4184 3896 c-3 -14 -4 -33 -1 -43 4 -14 5 -14 6 5 0 12 5 22 10 22
12 0 24 -37 17 -49 -3 -5 2 -15 11 -22 12 -10 14 -10 9 -1 -4 6 -3 12 2 12 6
0 10 23 10 50 1 49 0 50 -28 50 -23 0 -31 -6 -36 -24z"/>
<path d="M4953 3913 c-15 -6 -17 -33 -3 -33 6 0 10 6 10 14 0 8 6 17 13 19 6
3 8 5 2 5 -5 0 -16 -2 -22 -5z"/>
<path d="M5884 3894 c-10 -8 -14 -13 -7 -10 6 3 18 3 27 0 15 -6 15 -7 0 -18
-14 -11 -14 -13 3 -26 10 -8 15 -10 11 -6 -4 5 0 14 9 21 19 14 10 35 -15 35
-15 0 -15 2 -2 10 8 5 10 10 4 10 -5 0 -19 -7 -30 -16z"/>
<path d="M3715 3882 c-3 -8 -3 -18 1 -23 3 -5 1 -9 -5 -9 -5 0 -12 6 -14 13
-3 6 -6 -7 -6 -30 l-1 -43 35 17 c30 15 35 21 35 53 0 29 -4 36 -20 36 -11 0
-22 -6 -25 -14z"/>
<path d="M4819 3889 c-11 -7 -10 -9 6 -10 11 0 15 -3 8 -6 -9 -3 -10 -9 -1
-22 6 -11 8 -26 3 -37 -7 -17 -8 -17 -15 6 -7 21 -8 22 -10 5 l-1 -20 -9 20
c-6 14 -9 4 -9 -36 -1 -33 -6 -61 -13 -66 -15 -12 -48 -13 -48 -2 0 5 -10 14
-22 20 -13 6 -20 8 -16 5 3 -4 -12 -24 -33 -43 -22 -20 -38 -42 -35 -50 3 -7
1 -13 -4 -13 -6 0 -19 -9 -30 -20 -19 -19 -19 -20 0 -42 10 -13 22 -20 26 -15
4 4 -1 14 -12 22 -23 18 -2 20 26 3 18 -11 23 -9 46 17 14 17 29 30 33 30 13
0 71 59 71 72 0 7 6 13 14 13 9 0 12 7 9 23 -4 18 -3 19 6 7 8 -11 11 -12 11
-2 0 7 5 10 10 7 6 -3 10 3 10 15 0 12 5 18 10 15 6 -4 10 15 10 48 0 57 -13
74 -41 56z m-144 -196 c-2 -10 -4 -19 -4 -21 -1 -2 -6 0 -11 3 -8 5 -7 11 1
21 15 18 18 18 14 -3z"/>
<path d="M3570 3880 c0 -5 4 -10 9 -10 5 0 14 -13 20 -30 5 -16 12 -30 14 -30
8 0 -7 66 -17 72 -16 11 -26 10 -26 -2z"/>
<path d="M3642 3860 c0 -14 2 -19 5 -12 2 6 2 18 0 25 -3 6 -5 1 -5 -13z"/>
<path d="M3179 3854 c-7 -8 -26 -22 -42 -31 -38 -19 -21 -32 38 -29 46 3 75
-8 75 -29 0 -8 4 -15 8 -15 5 0 8 9 7 20 -1 23 -44 72 -56 65 -4 -3 -11 0 -15
6 -4 8 -3 9 4 5 7 -4 12 -3 12 3 0 18 -18 21 -31 5z m56 -44 c3 -5 1 -10 -4
-10 -6 0 -11 5 -11 10 0 6 2 10 4 10 3 0 8 -4 11 -10z"/>
<path d="M2178 3834 c12 -17 18 -34 14 -38 -4 -4 5 -5 21 -1 16 4 27 3 27 -3
0 -6 -10 -12 -22 -14 -21 -3 -21 -4 -3 -18 11 -9 16 -10 11 -2 -4 6 -2 12 3
12 6 0 11 -7 11 -15 0 -8 3 -15 8 -16 26 -3 46 -9 51 -17 3 -5 17 -15 31 -22
23 -12 24 -12 11 4 -12 14 -12 16 2 10 8 -3 25 -1 36 6 17 9 21 8 21 -5 0 -8
-4 -15 -10 -15 -5 0 -1 -9 10 -20 20 -20 31 -25 29 -14 0 3 6 16 15 29 14 21
14 24 0 29 -9 3 -20 4 -25 0 -5 -3 -9 0 -9 7 0 6 -8 9 -20 6 -12 -3 -20 0 -20
8 0 13 -33 28 -83 39 -18 4 -25 11 -21 19 4 7 4 9 -1 5 -4 -4 -23 4 -41 19
-19 14 -34 22 -34 18 0 -4 -8 -1 -17 6 -12 10 -11 5 5 -17z m102 -74 c0 -5 -5
-10 -11 -10 -5 0 -7 5 -4 10 3 6 8 10 11 10 2 0 4 -4 4 -10z"/>
<path d="M4332 3848 c-16 -16 -15 -38 1 -38 9 0 9 -2 -1 -9 -10 -6 -10 -10 1
-20 12 -9 16 -8 21 5 9 25 7 54 -5 54 -5 0 -7 5 -4 10 8 14 2 13 -13 -2z"/>
<path d="M5804 3844 c-18 -14 -18 -15 4 -4 12 6 22 13 22 15 0 8 -5 6 -26 -11z"/>
<path d="M3661 3830 c-1 -18 -4 -21 -10 -12 -6 10 -10 9 -14 -7 -3 -12 -1 -19
3 -16 5 3 10 -1 13 -7 8 -24 18 0 14 34 -3 24 -4 27 -6 8z"/>
<path d="M4262 3821 c1 -21 6 -27 17 -23 9 3 12 1 7 -6 -4 -7 -1 -12 6 -12 10
0 13 10 10 35 -3 26 -9 35 -23 35 -15 0 -19 -6 -17 -29z"/>
<path d="M5848 3839 c-24 -13 -23 -29 2 -29 11 0 20 6 20 13 0 9 3 8 9 -2 7
-10 10 -10 16 -1 4 7 1 16 -6 21 -17 11 -20 11 -41 -2z"/>
<path d="M4747 3803 c-4 -3 -7 -19 -7 -35 0 -40 24 -31 28 10 3 30 -6 41 -21
25z"/>
<path d="M5735 3800 c-16 -4 -23 -9 -15 -10 8 -2 -1 -6 -20 -9 -19 -4 -34 -12
-33 -18 2 -7 -6 -10 -17 -8 -11 2 -23 -1 -26 -7 -4 -6 -3 -8 2 -5 12 7 38 -8
40 -23 1 -5 2 -13 3 -16 0 -3 14 4 30 15 15 11 31 17 35 14 4 -4 4 1 0 10 -6
15 -2 17 22 12 20 -5 25 -4 15 3 -8 6 -12 19 -8 31 3 12 4 20 4 20 -1 -1 -15
-5 -32 -9z"/>
<path d="M5830 3789 c0 -5 5 -7 10 -4 6 3 10 8 10 11 0 2 -4 4 -10 4 -5 0 -10
-5 -10 -11z"/>
<path d="M5795 3780 c3 -5 10 -10 16 -10 5 0 9 5 9 10 0 6 -7 10 -16 10 -8 0
-12 -4 -9 -10z"/>
<path d="M3163 3763 c9 -2 15 -9 12 -14 -4 -5 8 -9 25 -9 47 0 32 25 -16 27
-21 1 -31 -1 -21 -4z"/>
<path d="M3281 3760 c-1 -9 4 -21 11 -28 9 -9 7 -12 -12 -13 -14 -1 -28 -1
-32 0 -5 0 -8 -3 -8 -9 0 -5 -8 -6 -17 -3 -11 4 -8 -2 8 -18 13 -13 27 -23 31
-22 4 2 17 -10 29 -25 13 -16 20 -20 16 -9 -6 17 -4 16 19 -2 30 -24 58 -13
47 17 -6 15 -5 15 10 3 18 -14 24 -47 7 -36 -5 3 -10 2 -10 -4 0 -5 6 -12 13
-14 6 -3 -4 -3 -23 0 l-35 6 25 -21 c17 -14 30 -17 41 -11 32 16 29 38 -7 79
-35 38 -64 52 -64 30 0 -5 -5 -10 -10 -10 -6 0 -5 8 2 20 11 18 10 23 -8 38
-12 9 -24 24 -27 32 -5 13 -6 13 -6 0z"/>
<path d="M5598 3723 c7 -3 16 -2 19 1 4 3 -2 6 -13 5 -11 0 -14 -3 -6 -6z"/>
<path d="M2462 3694 c-11 -12 -9 -14 8 -14 11 0 20 4 20 9 0 17 -15 19 -28 5z"/>
<path d="M5510 3695 c-19 -5 -45 -16 -57 -23 -13 -7 -23 -10 -23 -6 0 4 -9 -1
-21 -12 -12 -10 -23 -18 -25 -16 -16 9 -25 -1 -20 -23 4 -14 2 -25 -4 -25 -17
0 -11 -22 12 -42 16 -14 19 -21 10 -30 -8 -8 -15 -8 -25 1 -10 7 -23 8 -38 3
-56 -21 -79 -23 -73 -7 4 8 12 15 20 15 8 0 14 7 14 15 0 8 5 15 10 15 6 0 10
7 10 15 0 10 -10 15 -34 15 -36 0 -56 -14 -34 -23 8 -4 7 -6 -4 -6 -9 -1 -20
4 -23 9 -3 6 -11 10 -17 10 -6 0 -8 -3 -5 -7 8 -7 -23 -32 -41 -33 -7 0 -10 5
-7 10 8 14 -21 13 -62 -2 -25 -9 -33 -17 -31 -33 3 -19 10 -20 133 -19 72 0
143 4 159 9 21 6 27 5 22 -4 -8 -12 25 -8 64 6 21 8 30 10 72 11 29 2 36 5 31
18 -4 10 1 17 16 21 11 3 21 9 21 14 0 14 34 10 56 -6 22 -17 38 -20 29 -5 -3
6 -1 10 4 10 18 0 12 38 -6 42 -29 6 -73 -3 -67 -13 3 -6 -8 -7 -26 -4 -26 5
-31 3 -27 -10 8 -18 -14 -20 -32 -2 -11 10 -12 9 -6 -2 6 -10 2 -11 -15 -6
-15 5 -20 4 -16 -4 13 -21 -10 -11 -41 18 -30 27 -31 30 -14 45 10 9 26 16 37
15 10 0 13 -3 6 -6 -6 -2 -10 -9 -6 -14 3 -5 -2 -9 -10 -9 -9 0 -16 -4 -16
-10 0 -5 11 -9 24 -8 14 1 22 6 20 10 -8 12 6 48 18 48 6 0 8 -8 6 -18 -4 -16
-1 -18 21 -14 14 3 20 7 14 9 -7 3 -13 9 -13 15 0 5 9 6 20 3 14 -4 20 -2 20
9 0 8 -8 16 -17 18 -14 3 -13 5 5 10 13 4 21 4 18 1 -3 -3 2 -12 10 -20 16
-16 69 -10 59 7 -3 6 2 10 11 10 10 0 14 3 11 6 -11 11 -90 11 -127 -1z m-310
-163 c0 -5 -7 -9 -15 -9 -8 0 -15 4 -15 9 0 4 7 8 15 8 8 0 15 -4 15 -8z m40
0 c0 -5 -7 -9 -15 -9 -8 0 -15 4 -15 9 0 4 7 8 15 8 8 0 15 -4 15 -8z"/>
<path d="M5787 3667 c-25 -13 -44 -20 -41 -16 3 5 -2 6 -10 3 -9 -3 -16 -10
-16 -15 0 -5 -6 -9 -13 -9 -7 0 -18 -9 -25 -20 -10 -16 -10 -20 1 -20 7 0 18
5 24 11 7 7 14 6 24 -3 13 -12 24 -14 53 -10 6 1 1 9 -10 17 -11 8 -14 15 -6
15 6 0 12 6 12 14 0 8 14 20 30 28 17 7 30 16 30 20 0 11 -1 11 -53 -15z"/>
<path d="M5856 3677 c3 -10 9 -15 12 -12 3 3 0 11 -7 18 -10 9 -11 8 -5 -6z"/>
<path d="M2135 3661 c-3 -8 -1 -19 5 -25 6 -6 10 -6 10 0 0 5 13 9 29 9 30 0
32 -19 3 -41 -13 -9 -13 -12 2 -17 9 -4 16 -2 16 3 0 19 103 0 126 -23 4 -4
22 -7 41 -7 18 0 33 -4 33 -10 0 -5 5 -10 10 -10 6 0 10 6 10 13 0 9 12 11 38
9 24 -2 42 1 49 10 9 10 6 13 -15 14 -40 1 -82 12 -98 25 -11 9 -14 8 -14 -2
-1 -10 -4 -8 -11 4 -7 12 -17 15 -33 11 -15 -3 -29 1 -39 11 -9 9 -27 17 -39
18 -13 0 -26 5 -29 10 -11 15 -88 14 -94 -2z"/>
<path d="M2522 3657 c-14 -16 1 -42 19 -32 9 6 11 4 6 -7 -4 -12 5 -17 45 -22
l50 -7 -4 -34 c-2 -20 0 -35 7 -35 5 0 3 -5 -5 -11 -12 -8 -10 -10 10 -8 14 1
33 -1 43 -6 22 -9 107 3 107 16 0 5 -12 8 -27 5 -16 -2 -28 -5 -28 -6 0 -1 -8
-3 -17 -5 -10 -2 -18 1 -18 6 0 5 9 9 20 9 11 0 20 5 20 10 0 6 11 10 25 10
14 0 25 5 25 10 0 6 -5 10 -11 10 -5 0 -7 5 -4 10 4 6 -7 13 -24 16 -17 4 -31
11 -31 16 0 5 -4 7 -8 4 -5 -3 -19 1 -33 8 -13 7 -31 10 -38 8 -8 -3 -11 0 -7
7 4 7 1 9 -8 5 -8 -3 -25 4 -37 15 -26 24 -61 27 -77 8z"/>
<path d="M2525 3572 c-2 -2 -1 -11 2 -19 5 -13 -1 -14 -34 -8 -24 4 -43 2 -47
-3 -3 -6 15 -12 42 -16 112 -13 136 -14 127 -8 -20 14 -35 50 -23 54 6 2 -6 4
-26 4 -20 0 -38 -2 -41 -4z"/>
<path d="M2800 3576 c0 -2 7 -7 16 -10 8 -3 12 -2 9 4 -6 10 -25 14 -25 6z"/>
<path d="M5780 3564 c0 -14 3 -14 15 -4 8 7 15 14 15 16 0 2 -7 4 -15 4 -8 0
-15 -7 -15 -16z"/>
<path d="M2223 3552 c20 -22 22 -36 5 -26 -7 4 1 -8 17 -27 17 -19 31 -36 33
-38 1 -2 2 1 2 7 0 7 -8 20 -18 30 -19 19 -18 52 1 52 20 0 -16 20 -37 20 -18
0 -18 -1 -3 -18z"/>
<path d="M5556 3545 c-11 -8 -15 -15 -9 -15 7 0 15 5 18 11 4 6 13 8 21 5 7
-3 16 -1 19 4 9 15 -28 11 -49 -5z"/>
<path d="M5805 3550 c3 -5 10 -10 16 -10 5 0 9 5 9 10 0 6 -7 10 -16 10 -8 0
-12 -4 -9 -10z"/>
<path d="M5725 3524 c-12 -19 -14 -29 -6 -37 6 -6 11 -9 11 -6 0 2 4 19 9 37
12 39 9 40 -14 6z"/>
<path d="M2280 3532 c0 -6 9 -16 21 -22 19 -11 19 -13 5 -29 -20 -22 -21 -47
-2 -54 17 -7 28 16 19 40 -5 11 -3 14 6 9 7 -5 11 -17 8 -27 -3 -10 1 -23 9
-30 15 -12 9 -33 -7 -24 -5 4 -9 2 -9 -4 0 -17 22 -24 31 -10 6 10 12 8 28
-10 17 -19 21 -21 21 -8 0 10 -5 17 -11 17 -5 0 -7 5 -4 10 4 6 -12 35 -34 64
-48 62 -81 94 -81 78z"/>
<path d="M2850 3528 c0 -11 28 -10 35 1 3 6 -4 9 -15 8 -11 -1 -20 -5 -20 -9z"/>
<path d="M2918 3533 c7 -3 16 -2 19 1 4 3 -2 6 -13 5 -11 0 -14 -3 -6 -6z"/>
<path d="M5790 3515 c-7 -9 -11 -17 -9 -20 3 -2 10 5 17 15 14 24 10 26 -8 5z"/>
<path d="M2903 3493 c9 -2 25 -2 35 0 9 3 1 5 -18 5 -19 0 -27 -2 -17 -5z"/>
<path d="M5741 3464 c0 -11 3 -14 6 -6 3 7 2 16 -1 19 -3 4 -6 -2 -5 -13z"/>
<path d="M5665 3420 c3 -5 1 -10 -4 -10 -6 0 -11 -5 -11 -11 0 -5 4 -8 9 -5
11 7 24 -24 15 -33 -4 -3 -9 0 -11 7 -6 15 -43 16 -43 1 0 -5 5 -7 10 -4 6 3
10 2 10 -4 0 -16 -46 -57 -58 -53 -7 2 -12 0 -12 -5 0 -14 61 -15 77 -2 11 10
11 14 1 20 -10 7 -9 9 5 9 9 0 17 5 17 11 0 5 5 7 12 3 6 -4 8 -3 4 4 -3 6 3
20 15 30 l21 20 -21 7 c-12 3 -21 11 -21 16 0 5 -5 9 -11 9 -5 0 -7 -4 -4 -10z"/>
<path d="M2438 3333 c-10 -2 -18 -9 -18 -15 0 -5 -8 -7 -17 -4 -17 7 -17 6 -1
-10 18 -18 32 -13 48 17 6 10 9 18 8 18 -2 -1 -11 -3 -20 -6z"/>
<path d="M5539 3264 c-8 -10 -20 -29 -27 -43 -7 -14 -10 -18 -7 -8 3 11 1 15
-6 12 -16 -10 -5 -30 17 -30 13 0 18 -6 16 -20 l-2 -20 12 20 c6 11 18 25 26
31 9 7 12 16 7 24 -6 10 -4 12 7 7 23 -8 40 13 23 29 -18 19 -50 18 -66 -2z
m18 -16 c-3 -8 -6 -5 -6 6 -1 11 2 17 5 13 3 -3 4 -12 1 -19z"/>
<path d="M2450 3261 c0 -5 11 -23 25 -39 13 -16 21 -33 17 -38 -4 -4 0 -3 9 4
9 6 19 9 22 5 4 -3 7 -1 7 5 0 5 3 19 6 29 4 12 3 14 -3 6 -6 -9 -14 -6 -27
12 -18 24 -56 35 -56 16z m50 -43 c0 -6 -7 -5 -15 2 -8 7 -15 17 -15 22 0 6 7
5 15 -2 8 -7 15 -17 15 -22z"/>
<path d="M2559 3191 c14 -25 20 -27 17 -4 -2 9 -8 19 -15 21 -10 3 -10 0 -2
-17z"/>
<path d="M5465 3191 c-3 -5 -1 -12 5 -16 5 -3 10 1 10 9 0 18 -6 21 -15 7z"/>
<path d="M2598 3159 c7 -9 8 -20 4 -24 -4 -5 -1 -5 6 -1 6 4 12 2 12 -3 0 -6
-7 -11 -15 -11 -10 0 -12 -6 -8 -17 5 -14 4 -16 -8 -8 -8 6 -7 3 3 -6 9 -9 14
-20 10 -23 -3 -4 2 -4 13 0 14 6 17 4 13 -8 -5 -11 0 -15 15 -14 17 1 22 -5
21 -21 0 -12 2 -20 6 -18 4 2 19 -3 35 -11 15 -8 31 -11 34 -8 3 4 0 9 -6 11
-7 3 -13 12 -13 20 0 22 -44 70 -59 65 -9 -3 -12 1 -10 9 3 8 -10 30 -30 49
-19 19 -29 28 -23 19z"/>
<path d="M3080 3160 c0 -6 -7 -10 -15 -10 -17 0 -17 0 -20 -52 -1 -26 4 -43
16 -54 10 -9 16 -21 13 -25 -3 -5 4 -18 15 -30 l19 -21 16 31 c14 26 14 31 2
31 -23 0 -34 23 -22 46 7 14 19 20 33 18 28 -5 38 12 19 31 -19 19 -33 19 -44
-1 -7 -12 -17 -15 -37 -10 -35 9 -23 20 28 25 13 2 7 19 -8 25 -8 3 -15 1 -15
-4z"/>
<path d="M4895 3157 c-16 -6 -35 -16 -42 -23 -15 -15 -17 -50 -3 -59 17 -10
11 -36 -15 -67 -14 -16 -23 -34 -20 -38 3 -5 1 -11 -5 -15 -17 -10 -11 -25 9
-25 10 0 21 7 25 15 3 8 14 15 25 15 11 0 23 5 27 12 4 7 3 8 -4 4 -7 -4 -12
-1 -12 8 0 9 6 13 14 10 8 -3 14 1 13 8 0 7 1 22 2 33 1 17 3 18 12 5 8 -12 9
-12 7 5 -3 26 11 78 23 86 5 3 1 12 -8 21 -14 12 -24 13 -48 5z m15 -57 c0
-21 -24 -28 -35 -10 -8 14 3 30 21 30 8 0 14 -9 14 -20z m-32 -45 c-3 -3 -9 2
-12 12 -6 14 -5 15 5 6 7 -7 10 -15 7 -18z m0 -45 c-7 -10 -16 -16 -21 -13 -4
3 -15 -3 -23 -13 -9 -11 -12 -12 -8 -4 12 26 47 60 55 54 5 -3 3 -13 -3 -24z"/>
<path d="M2538 3153 c7 -3 16 -2 19 1 4 3 -2 6 -13 5 -11 0 -14 -3 -6 -6z"/>
<path d="M5455 3146 c-56 -20 -71 -49 -33 -61 15 -6 26 -1 38 15 10 13 22 20
29 16 6 -4 11 -1 11 9 0 10 -5 13 -12 9 -7 -4 -8 -3 -4 4 4 6 13 9 21 5 8 -3
15 -1 15 4 0 12 -30 12 -65 -1z"/>
<path d="M4760 3089 c-6 -9 -23 -24 -40 -33 -17 -8 -28 -10 -25 -5 10 16 -1
10 -40 -21 -24 -19 -32 -30 -21 -30 9 0 16 5 16 10 0 6 5 10 11 10 5 0 7 -4 4
-10 -3 -5 1 -10 10 -10 10 0 13 -5 9 -12 -6 -10 -5 -10 8 -1 8 7 18 10 21 6 4
-3 7 0 7 7 0 7 3 11 6 7 13 -12 104 45 104 65 0 15 -19 8 -23 -9 -4 -14 -5
-13 -6 4 0 12 5 23 12 26 6 2 -1 6 -16 9 -20 4 -30 0 -37 -13z m4 -60 c-8 -14
-24 -10 -24 6 0 9 6 12 15 9 8 -4 12 -10 9 -15z"/>
<path d="M3219 3087 c-1 -7 -1 -16 0 -20 2 -11 -42 -4 -52 8 -5 6 -7 4 -4 -5
2 -8 10 -14 16 -12 6 1 11 -3 11 -8 0 -7 6 -7 18 -1 9 5 29 8 43 8 19 -2 25
-6 21 -19 -2 -10 1 -18 9 -18 7 0 10 -3 7 -6 -4 -3 -16 0 -28 6 -12 6 -24 9
-27 7 -9 -9 51 -34 71 -29 13 3 16 0 11 -9 -6 -9 -2 -11 13 -7 16 5 22 2 22
-11 0 -27 11 -32 36 -17 20 14 24 13 39 -4 20 -22 14 -25 -16 -10 -13 7 -19 7
-19 0 0 -5 4 -10 10 -10 5 0 25 -13 43 -30 19 -16 39 -30 45 -30 6 0 12 -6 14
-12 4 -10 9 -8 21 3 9 9 13 19 10 23 -4 3 2 6 13 7 14 0 15 2 4 6 -8 3 -23 14
-34 24 -10 10 -23 16 -28 13 -4 -3 -8 -1 -8 4 0 5 -14 15 -30 22 -17 7 -35 21
-41 32 -5 10 -14 16 -20 13 -5 -4 -22 3 -38 14 -16 12 -34 21 -40 21 -6 0 -15
9 -20 19 -13 23 -70 46 -72 28z"/>
<path d="M5350 3066 c0 -9 -6 -16 -13 -16 -16 0 -50 -34 -42 -42 3 -3 -8 -11
-25 -18 -35 -14 -24 -30 19 -30 24 0 24 0 5 -15 -12 -9 -14 -14 -6 -15 8 0 27
14 42 30 15 17 23 30 17 30 -7 0 -6 4 3 9 8 6 17 8 20 6 3 -1 11 3 17 11 7 7
9 15 4 19 -5 3 -12 -1 -14 -7 -4 -10 -8 -10 -16 2 -6 9 -7 18 0 26 7 8 6 14
-1 19 -5 3 -10 -1 -10 -9z"/>
<path d="M5406 3072 c-4 -7 -2 -12 4 -12 6 0 8 -5 4 -12 -5 -9 -2 -9 9 1 18
14 23 26 8 17 -5 -4 -11 -1 -13 6 -3 9 -6 9 -12 0z"/>
<path d="M3124 2978 c-8 -18 -6 -27 11 -44 12 -11 27 -18 33 -16 8 2 10 -3 6
-13 -5 -13 -2 -15 20 -9 36 9 75 -28 55 -52 -19 -24 8 -36 32 -15 11 9 15 17
9 19 -5 2 -10 8 -10 14 0 12 -26 38 -39 38 -5 0 -12 9 -16 19 -3 12 -12 17
-23 15 -10 -3 -22 4 -30 17 -8 11 -9 18 -3 14 16 -9 13 1 -5 19 -21 21 -29 20
-40 -6z"/>
<path d="M4561 2976 c-8 -10 -9 -16 -1 -21 5 -3 13 1 16 10 9 22 -1 29 -15 11z"/>
<path d="M2709 2958 c9 -12 21 -16 36 -12 15 4 24 0 29 -11 4 -13 2 -16 -9
-11 -8 3 -15 2 -15 -3 0 -9 51 -22 62 -15 3 2 4 13 1 24 -3 11 -9 17 -14 14
-5 -2 -19 2 -33 11 -19 13 -25 13 -28 3 -4 -10 -9 -10 -24 2 -18 14 -18 14 -5
-2z"/>
<path d="M4600 2948 c0 -5 -4 -7 -9 -4 -5 3 -11 -1 -15 -9 -6 -17 -66 -21 -66
-4 0 5 5 7 12 3 7 -5 8 -3 3 5 -5 9 -10 10 -18 2 -7 -7 -7 -14 1 -24 7 -8 9
-16 6 -19 -2 -3 2 -8 10 -11 10 -4 13 -1 9 9 -4 12 0 14 19 9 18 -5 27 -2 32
10 3 9 10 14 15 10 5 -3 13 0 16 6 4 6 17 14 29 19 18 7 16 8 -11 8 -18 -1
-33 -5 -33 -10z"/>
<path d="M4762 2913 c-12 -17 -18 -33 -15 -37 4 -4 -6 -18 -21 -31 -28 -24
-40 -29 -59 -26 -5 1 -6 -3 -3 -8 4 -5 -3 -16 -15 -24 -24 -18 -49 -61 -49
-87 0 -10 -3 -26 -6 -35 -6 -13 -9 -14 -16 -3 -7 9 -8 8 -4 -5 3 -10 -1 -28
-9 -40 -19 -27 -19 -34 0 -34 8 0 11 5 8 10 -4 6 0 8 9 4 9 -3 35 1 59 8 24 8
38 14 32 14 -15 1 -18 41 -3 41 6 0 10 -4 10 -10 0 -5 5 -10 10 -10 6 0 10 9
10 21 0 16 -4 19 -19 14 -17 -5 -19 -1 -18 30 1 23 8 37 19 40 9 3 19 17 22
31 4 14 11 22 16 19 5 -3 12 0 16 6 4 8 3 9 -4 5 -7 -4 -12 -2 -12 4 0 6 13
19 30 28 16 9 30 21 30 25 0 5 4 6 10 2 11 -7 46 43 36 52 -3 3 -6 1 -6 -5 0
-20 -20 -13 -29 9 -7 21 -8 21 -29 -8z m-125 -170 c-4 -3 -1 -13 6 -22 10 -14
10 -14 -4 -4 -9 7 -20 9 -25 5 -4 -4 -2 1 5 11 7 9 16 17 19 17 3 0 2 -3 -1
-7z"/>
<path d="M5205 2930 c3 -5 8 -10 11 -10 2 0 4 5 4 10 0 6 -5 10 -11 10 -5 0
-7 -4 -4 -10z"/>
<path d="M2825 2898 c-10 -17 -13 -28 -8 -25 6 4 18 -4 26 -16 18 -28 73 -33
96 -9 13 12 12 14 -5 10 -10 -3 -31 2 -46 9 -31 15 -38 29 -10 18 15 -5 15 -5
2 7 -8 7 -20 18 -26 25 -8 9 -15 4 -29 -19z"/>
<path d="M5173 2923 c4 -4 -7 -13 -25 -21 -18 -8 -27 -16 -20 -19 19 -7 14
-25 -6 -19 -14 5 -18 1 -17 -14 2 -27 26 -50 32 -32 3 6 9 10 14 6 5 -3 9 5 9
17 0 16 5 20 18 17 10 -3 27 1 37 8 17 12 17 14 2 14 -9 0 -17 -6 -17 -12 -1
-8 -6 -6 -14 4 -7 10 -15 17 -17 15 -2 -1 4 5 14 13 17 15 14 30 -6 30 -6 0
-7 -3 -4 -7z"/>
<path d="M5255 2910 c-3 -5 -16 -11 -28 -11 -17 -1 -18 -2 -5 -6 10 -2 28 3
40 11 12 9 17 16 11 16 -7 0 -15 -4 -18 -10z"/>
<path d="M4465 2900 c3 -5 8 -10 11 -10 2 0 4 5 4 10 0 6 -5 10 -11 10 -5 0
-7 -4 -4 -10z"/>
<path d="M4440 2890 c0 -6 -4 -9 -9 -6 -11 7 -9 -13 2 -32 5 -7 13 -10 18 -7
12 8 12 42 -1 50 -5 3 -10 1 -10 -5z"/>
<path d="M4484 2868 c-4 -5 -3 -12 0 -15 3 -4 6 -1 6 6 0 7 4 10 9 6 5 -3 12
-2 15 3 3 5 -2 9 -10 9 -8 0 -17 -4 -20 -9z"/>
<path d="M3579 2861 c9 -6 11 -18 7 -34 -5 -20 -1 -29 15 -41 12 -8 27 -25 33
-37 16 -32 43 -46 58 -31 10 10 7 17 -15 38 -16 14 -27 19 -27 12 0 -9 -3 -9
-8 -2 -4 5 -17 17 -30 26 -22 15 -22 15 16 13 22 -1 44 -5 51 -9 6 -4 11 -2
11 3 0 6 -5 11 -10 11 -6 0 -21 11 -33 24 -12 13 -35 27 -52 30 -20 4 -25 3
-16 -3z"/>
<path d="M4384 2855 c-4 -8 -12 -15 -19 -15 -20 0 -39 -27 -23 -34 7 -3 1 -3
-14 0 -20 5 -28 1 -33 -15 -3 -12 -10 -19 -15 -16 -4 3 -6 -4 -3 -15 7 -27 23
-36 23 -13 0 14 2 15 9 4 6 -9 11 -10 15 -2 4 6 5 15 2 20 -3 5 16 16 42 24
39 13 44 13 28 1 -11 -8 -15 -14 -10 -14 6 0 20 10 32 23 16 17 19 26 11 34
-6 6 -18 9 -25 6 -10 -4 -12 0 -8 11 3 9 3 16 0 16 -4 0 -9 -7 -12 -15z"/>
<path d="M5073 2853 c-15 -5 -17 -23 -4 -23 5 0 11 7 15 15 3 8 4 15 3 14 -1
0 -8 -3 -14 -6z"/>
<path d="M2975 2824 c9 -9 19 -13 23 -10 3 4 0 11 -8 16 -24 15 -33 11 -15 -6z"/>
<path d="M2895 2810 c10 -11 20 -18 23 -16 5 6 -23 36 -34 36 -4 0 1 -9 11
-20z"/>
<path d="M3300 2817 c0 -9 4 -17 9 -17 4 0 12 -14 17 -32 5 -17 15 -33 22 -36
18 -6 15 28 -4 35 -8 3 -13 11 -11 17 2 6 -4 20 -14 30 -17 17 -19 18 -19 3z"/>
<path d="M2947 2796 c-8 -19 36 -40 68 -32 17 4 24 3 20 -4 -3 -5 -2 -10 3
-10 19 0 23 34 6 47 -21 15 -48 17 -39 3 3 -5 2 -10 -4 -10 -5 0 -13 5 -16 10
-9 15 -32 12 -38 -4z"/>
<path d="M5005 2803 c-11 -2 -27 -7 -35 -10 -8 -3 -19 -5 -23 -4 -5 1 -5 -9
-2 -21 9 -28 35 -58 35 -40 0 7 8 12 19 12 10 0 24 7 31 15 7 8 17 12 23 8 6
-4 8 0 4 10 -5 13 -1 17 16 18 21 0 21 1 2 8 -12 5 -26 4 -34 -3 -11 -8 -13
-8 -7 2 7 12 5 13 -29 5z"/>
<path d="M3250 2796 c0 -2 7 -7 16 -10 8 -3 12 -2 9 4 -6 10 -25 14 -25 6z"/>
<path d="M3080 2764 c-10 -11 -10 -20 -2 -37 6 -12 11 -16 11 -9 1 7 4 11 9 8
4 -2 18 2 32 10 18 9 20 13 8 14 -9 0 -23 7 -31 15 -13 13 -16 13 -27 -1z"/>
<path d="M3000 2746 c0 -2 7 -7 16 -10 8 -3 12 -2 9 4 -6 10 -25 14 -25 6z"/>
<path d="M3172 2734 c-11 -12 -9 -14 8 -14 11 0 20 -4 20 -9 0 -5 8 -11 18
-14 14 -3 13 -6 -8 -14 l-24 -10 31 -5 c18 -2 29 0 26 5 -3 5 4 6 17 2 15 -5
20 -4 16 4 -4 6 -2 19 4 30 8 16 7 20 -7 21 -63 3 -79 5 -83 11 -3 4 -11 1
-18 -7z"/>
<path d="M3301 2737 c54 -26 78 -71 42 -80 -10 -2 -1 -4 19 -3 35 1 36 2 20
20 -9 11 -11 16 -4 12 6 -4 12 -3 12 2 0 12 -58 48 -91 56 -22 5 -22 5 2 -7z"/>
<path d="M4852 2734 c-7 -8 -21 -14 -31 -14 -10 0 -31 -6 -46 -14 -15 -8 -33
-13 -39 -12 -6 2 -8 1 -4 -1 4 -3 1 -17 -7 -33 -10 -20 -12 -31 -4 -35 6 -4
13 -4 16 -1 4 3 1 6 -6 6 -9 0 -9 3 0 13 6 6 28 11 49 11 54 -3 97 21 102 56
5 33 -10 45 -30 24z"/>
<path d="M4896 2735 c-6 -17 29 -39 46 -29 7 5 3 10 -11 16 -12 4 -19 12 -16
18 3 5 2 10 -3 10 -6 0 -12 -7 -16 -15z"/>
<path d="M3616 2705 c-9 -26 -7 -32 5 -12 6 10 9 21 6 23 -2 3 -7 -2 -11 -11z"/>
<path d="M4311 2704 c0 -11 3 -14 6 -6 3 7 2 16 -1 19 -3 4 -6 -2 -5 -13z"/>
<path d="M3128 2703 c7 -3 16 -2 19 1 4 3 -2 6 -13 5 -11 0 -14 -3 -6 -6z"/>
<path d="M4360 2697 c0 -10 -7 -20 -15 -23 -8 -4 -15 -13 -15 -21 0 -8 5 -11
11 -7 8 5 10 -1 5 -19 -3 -14 -1 -29 4 -32 6 -4 9 -1 8 7 -2 8 7 13 25 13 15
-1 27 2 27 5 0 14 -32 50 -41 45 -5 -4 -9 -2 -9 4 0 5 6 11 13 14 10 4 10 7 0
18 -11 11 -13 10 -13 -4z"/>
<path d="M4890 2689 c0 -5 5 -7 10 -4 6 3 10 8 10 11 0 2 -4 4 -10 4 -5 0 -10
-5 -10 -11z"/>
<path d="M3306 2671 c-17 -6 -17 -8 -4 -14 10 -3 19 0 22 9 3 8 4 14 3 13 -1
0 -11 -4 -21 -8z"/>
<path d="M3640 2639 c0 -16 -26 -39 -44 -39 -19 0 -22 -30 -3 -31 6 0 2 -4
-10 -9 -12 -5 -30 -24 -39 -42 -14 -27 -14 -31 -2 -20 11 9 23 10 41 3 28 -11
42 5 30 36 -5 13 -2 15 12 10 14 -6 15 -4 8 5 -6 8 -7 22 -2 33 4 11 8 14 8 7
1 -7 6 -10 12 -7 6 4 8 9 5 12 -3 3 -1 14 4 23 7 13 6 20 -5 24 -8 3 -15 1
-15 -5z"/>
<path d="M4404 2573 c5 -22 4 -25 -4 -13 -9 11 -13 12 -17 2 -2 -6 -10 -9 -15
-6 -7 4 -8 2 -4 -5 4 -6 11 -9 16 -6 5 3 12 -10 15 -29 4 -21 14 -36 25 -39 9
-2 17 1 17 7 -1 39 4 56 14 50 8 -4 7 0 -1 15 -6 12 -15 19 -21 16 -5 -4 -9 3
-9 14 0 12 -5 21 -11 21 -7 0 -9 -10 -5 -27z"/>
<path d="M3540 2477 c-27 -14 -36 -47 -13 -47 11 0 14 -8 11 -30 -4 -23 -2
-27 9 -19 7 6 11 15 8 19 -3 4 2 13 11 20 11 10 12 15 3 21 -10 6 -10 11 0 22
16 21 0 28 -29 14z"/>
<path d="M4441 2468 c-11 -18 -11 -23 6 -37 11 -9 23 -24 26 -33 4 -11 12 -15
21 -12 24 9 42 -7 24 -20 -14 -10 -14 -14 3 -35 11 -13 20 -22 20 -20 8 26 5
60 -7 70 -8 6 -14 18 -14 26 0 13 3 13 18 2 9 -7 6 0 -8 16 -37 45 -44 52 -35
36 6 -10 4 -12 -4 -7 -7 5 -10 13 -8 20 8 21 -29 15 -42 -6z"/>
<path d="M3500 2404 c0 -6 -8 -20 -17 -31 -10 -10 -13 -12 -8 -3 9 13 8 13 -7
2 -10 -8 -16 -19 -15 -25 1 -7 -5 -11 -13 -9 -12 3 -12 1 -3 -9 10 -10 15 -9
28 1 10 8 15 9 15 2 0 -6 7 -9 15 -6 10 4 13 13 10 24 -3 10 1 25 10 33 19 20
19 34 0 34 -8 0 -15 -6 -15 -13z"/>
<path d="M4564 2361 c4 -5 1 -11 -5 -13 -6 -2 -2 -11 9 -21 17 -15 20 -16 25
-3 4 11 1 13 -10 9 -12 -5 -14 -1 -8 15 4 14 2 22 -5 22 -6 0 -9 -4 -6 -9z"/>
<path d="M3629 2319 c-14 -27 -11 -35 5 -13 8 10 18 16 22 11 4 -4 2 -7 -4 -7
-7 0 -12 -7 -12 -15 0 -8 -6 -15 -12 -15 -8 -1 -6 -6 5 -14 19 -14 22 -32 8
-40 -15 -10 -41 5 -41 22 0 13 -3 12 -14 -3 -8 -11 -12 -23 -9 -27 2 -5 -3
-15 -11 -23 -8 -9 -13 -22 -9 -31 3 -8 1 -14 -3 -12 -19 6 -40 -26 -36 -53 3
-20 -1 -28 -15 -32 -10 -3 7 -5 38 -6 41 -1 59 -5 63 -16 3 -8 10 -15 16 -15
6 0 4 7 -4 16 -21 20 -20 36 1 32 11 -2 19 5 21 17 3 11 8 22 12 25 5 3 12 18
16 34 5 21 4 27 -5 22 -7 -5 -11 0 -11 13 0 12 5 21 11 21 6 0 9 9 6 19 -3 13
1 21 15 24 16 4 19 13 16 43 -3 33 -6 37 -31 39 -18 0 -32 -6 -38 -16z m-9
-189 c0 -11 -4 -20 -10 -20 -5 0 -10 9 -10 20 0 11 5 20 10 20 6 0 10 -9 10
-20z"/>
<path d="M3423 2305 c4 -9 7 -21 7 -26 0 -6 5 -7 11 -3 6 3 15 0 20 -7 5 -8 9
-9 9 -3 0 6 -12 21 -27 33 -20 18 -25 20 -20 6z"/>
<path d="M4307 2301 c-3 -13 -3 -21 0 -18 3 3 16 -6 29 -21 13 -15 24 -21 24
-14 0 6 -8 20 -19 31 -10 10 -21 25 -23 32 -3 8 -7 4 -11 -10z"/>
<path d="M4600 2316 c0 -3 4 -16 10 -31 9 -23 8 -25 -8 -16 -14 7 -19 6 -19
-4 0 -8 4 -12 9 -9 4 3 8 -1 8 -9 0 -22 27 -41 33 -25 3 7 3 -4 0 -24 -3 -20
-1 -50 5 -66 7 -22 7 -33 -1 -42 -9 -10 -9 -11 1 -6 6 4 12 3 12 -2 0 -14 -11
-21 -25 -15 -10 3 -11 11 -4 30 5 14 7 28 4 31 -11 11 -18 -9 -20 -58 -2 -32
-9 -58 -20 -70 -18 -20 -17 -20 18 -20 22 0 37 -5 37 -12 0 -6 2 -9 5 -7 5 5
18 123 19 172 1 19 5 26 15 22 9 -3 11 0 7 10 -3 9 0 25 6 35 10 15 10 22 0
32 -9 9 -12 9 -12 0 0 -18 -27 -15 -34 4 -4 11 -2 15 8 11 22 -9 8 21 -15 34
-11 5 -19 16 -19 24 0 8 -4 15 -10 15 -5 0 -10 -2 -10 -4z"/>
<path d="M4378 2285 c5 -29 8 -31 15 -11 3 8 0 19 -7 25 -10 9 -12 6 -8 -14z"/>
<path d="M3394 2282 c3 -6 0 -14 -8 -19 -8 -4 -16 -12 -18 -18 -2 -5 -7 -9
-12 -7 -5 2 -6 -4 -2 -13 3 -9 6 -19 6 -21 0 -2 7 -4 16 -4 9 0 12 -5 8 -12
-4 -7 -7 -29 -5 -50 1 -29 -2 -38 -14 -38 -11 0 -16 8 -15 23 3 36 1 47 -11
47 -8 0 -9 -12 -4 -37 4 -21 8 -50 10 -64 1 -14 6 -32 11 -40 4 -8 7 -22 6
-31 -2 -9 6 -22 17 -28 16 -8 19 -15 12 -33 -6 -15 -5 -31 4 -46 l12 -24 29
33 c16 19 36 41 45 50 51 53 63 93 27 88 -19 -2 -22 -8 -20 -35 4 -38 -10 -49
-32 -24 -15 17 -15 19 -1 25 9 3 13 10 10 16 -3 5 -1 10 4 10 6 0 11 8 11 17
0 15 -2 14 -14 -2 -8 -11 -13 -23 -10 -26 2 -3 -8 -11 -21 -17 -22 -10 -25 -9
-30 11 -2 12 -4 33 -4 47 0 14 -2 45 -5 68 -5 37 -1 49 20 78 15 19 22 34 16
34 -6 0 -12 -5 -14 -10 -2 -6 -9 -1 -16 10 -10 16 -10 20 0 18 18 -4 16 24 -1
30 -8 3 -11 0 -7 -6z m10 -73 c-3 -5 -10 -7 -15 -3 -5 3 -7 10 -3 15 3 5 10 7
15 3 5 -3 7 -10 3 -15z"/>
<path d="M4360 2220 c0 -5 5 -10 10 -10 6 0 10 5 10 10 0 6 -4 10 -10 10 -5 0
-10 -4 -10 -10z"/>
<path d="M4411 2211 c-9 -6 -10 -11 -2 -15 6 -4 11 -2 11 5 0 10 3 10 11 2 17
-17 -6 -52 -31 -46 -10 3 -26 -2 -34 -10 -20 -19 -6 -73 17 -71 10 1 17 -2 17
-7 0 -5 -6 -9 -12 -9 -7 0 -5 -5 5 -11 9 -5 17 -19 17 -29 0 -10 5 -22 12 -26
7 -4 8 -3 4 4 -4 7 -2 12 3 12 6 0 11 -11 11 -24 0 -24 22 -51 33 -40 3 3 3
-4 0 -17 -4 -14 -2 -20 4 -16 6 4 14 0 17 -9 10 -26 7 -36 -9 -30 -8 3 -15 2
-15 -1 0 -17 25 -73 32 -73 5 0 8 -12 7 -27 -2 -38 18 -86 32 -77 11 6 10 -1
-9 -56 -3 -9 2 -6 11 5 9 11 17 17 17 14 0 -14 -58 -78 -65 -71 -5 4 -5 1 -1
-5 4 -8 2 -13 -6 -13 -10 0 -9 -3 2 -10 9 -6 17 -5 22 3 5 9 8 9 8 1 0 -7 7
-15 16 -18 8 -3 12 -2 9 4 -3 6 -1 10 4 10 6 0 11 6 11 14 0 8 6 17 13 19 10
4 10 6 0 6 -7 1 -13 8 -13 17 0 13 3 14 14 5 11 -9 15 -8 21 6 16 38 13 55
-10 51 -20 -4 -22 0 -22 38 0 38 2 41 14 26 11 -15 12 -13 2 10 -7 15 -16 25
-20 22 -5 -3 -9 -1 -9 5 0 6 -7 8 -15 5 -11 -5 -13 -2 -9 10 4 9 1 16 -6 16
-9 0 -8 6 3 18 10 10 13 22 8 28 -10 11 -61 144 -55 144 2 0 19 -17 39 -37 32
-36 34 -37 35 -14 0 16 -4 22 -15 17 -10 -3 -15 1 -16 14 -2 29 -3 33 -13 49
-7 10 -4 12 13 6 24 -7 26 -2 10 26 -6 11 -17 18 -24 15 -16 -6 -30 28 -19 46
4 7 3 10 -1 5 -11 -9 -45 22 -45 41 0 12 3 12 17 1 11 -9 10 -3 -6 19 -12 17
-23 32 -24 32 -1 0 -8 -4 -16 -9z"/>
<path d="M4339 2194 c6 -3 8 -11 5 -19 -3 -7 -1 -16 4 -19 5 -3 9 4 8 16 0 12
-7 23 -14 24 -7 1 -8 0 -3 -2z"/>
<path d="M3860 2063 c0 -3 7 -11 15 -17 9 -7 12 -19 9 -33 -8 -30 -24 -29 -24
0 0 29 -27 32 -29 3 -4 -89 -9 -144 -15 -158 -5 -10 -1 -26 8 -40 9 -12 15
-34 15 -48 -1 -23 -2 -23 -8 5 l-7 30 -9 -35 c-10 -37 -15 -91 -19 -225 -1
-44 -6 -88 -11 -98 -4 -10 -5 -21 -1 -24 3 -4 6 1 6 10 0 9 6 14 13 12 14 -6
37 39 37 74 0 21 2 23 10 11 14 -22 13 38 -1 78 -8 23 -8 39 0 59 11 27 11 27
6 -7 -4 -34 -4 -34 9 -11 13 23 14 22 22 -25 4 -27 7 -58 6 -69 -2 -15 0 -17
7 -6 7 11 10 9 16 -8 9 -28 19 -27 33 4 16 34 15 55 -2 74 -17 20 -31 62 -19
60 20 -3 27 2 13 11 -12 7 -15 30 -15 102 0 51 -1 83 -3 71 -3 -23 -42 -34
-42 -13 0 6 7 10 15 10 10 0 15 10 15 31 0 30 -1 31 -38 27 -36 -3 -37 -2 -27
19 11 24 25 31 25 11 0 -6 3 -8 7 -5 3 4 12 2 20 -5 12 -10 13 -7 7 16 -3 15
-8 41 -9 59 -2 18 -3 35 -4 38 -1 9 -31 20 -31 12z m51 -470 c-12 -20 -14 -14
-5 12 4 9 9 14 11 11 3 -2 0 -13 -6 -23z"/>
<path d="M4160 2053 c0 -4 5 -15 10 -23 8 -13 10 -13 10 2 0 9 -4 20 -10 23
-5 3 -10 3 -10 -2z"/>
<path d="M3600 2010 c13 -24 17 -25 17 -5 0 8 -6 16 -14 19 -11 4 -11 1 -3
-14z"/>
<path d="M4536 2012 c-2 -4 4 -9 15 -9 11 -1 17 2 14 8 -7 11 -22 12 -29 1z"/>
<path d="M3542 1988 c-16 -16 -15 -25 1 -25 7 0 13 9 13 19 0 21 1 21 -14 6z"/>
<path d="M4406 1975 c4 -8 11 -15 16 -15 6 0 5 6 -2 15 -7 8 -14 15 -16 15 -2
0 -1 -7 2 -15z"/>
<path d="M4420 1940 c0 -5 5 -10 11 -10 5 0 7 5 4 10 -3 6 -8 10 -11 10 -2 0
-4 -4 -4 -10z"/>
<path d="M4565 1900 c10 -11 20 -20 23 -20 3 0 -3 9 -13 20 -10 11 -20 20 -23
20 -3 0 3 -9 13 -20z"/>
<path d="M4611 1906 c-8 -10 -9 -16 -1 -21 5 -3 13 1 16 10 9 22 -1 29 -15 11z"/>
<path d="M4115 1891 c-3 -11 -3 -32 0 -48 5 -25 4 -26 -4 -5 -6 12 -12 22 -13
22 -2 0 -3 -22 -3 -49 0 -27 3 -47 6 -45 9 5 18 -43 10 -53 -4 -4 -5 -7 -3 -6
8 4 30 -22 25 -29 -2 -5 1 -8 6 -8 6 0 11 11 11 25 0 14 -4 25 -10 25 -5 0
-10 9 -10 19 0 11 -4 23 -10 26 -17 11 -11 23 10 18 23 -6 54 22 44 39 -4 7 2
4 14 -6 12 -11 25 -16 29 -12 4 4 1 11 -6 15 -9 6 -11 18 -6 40 7 31 6 31 -21
20 -16 -5 -25 -7 -21 -3 9 9 -12 34 -29 34 -7 0 -15 -9 -19 -19z"/>
<path d="M3506 1882 c-3 -9 -9 -24 -12 -32 -3 -8 2 -7 10 4 9 11 16 15 16 9 0
-5 -11 -22 -25 -37 -27 -29 -32 -42 -13 -30 6 4 8 3 5 -3 -4 -6 0 -24 8 -39
10 -20 15 -24 15 -11 0 10 7 20 15 23 20 8 19 22 -2 20 -10 0 -19 7 -21 17 -2
9 1 17 7 17 6 0 11 -4 11 -10 0 -5 8 -10 17 -10 15 0 15 2 -2 14 -18 13 -18
14 3 20 13 4 19 13 15 22 -3 8 1 14 11 14 9 0 16 7 16 15 0 8 -5 15 -11 15 -5
0 -8 -4 -5 -9 10 -16 -23 -21 -38 -6 -12 12 -15 12 -20 -3z"/>
<path d="M3460 1765 c0 -11 -9 -35 -20 -53 -24 -39 -26 -78 -4 -90 9 -5 15
-12 15 -15 -4 -32 0 -36 24 -27 20 8 23 7 18 -8 -3 -9 -10 -22 -15 -29 -10
-13 -3 -33 12 -33 5 0 7 7 4 15 -4 9 0 15 9 15 8 0 17 -11 19 -25 3 -13 2 -22
-3 -19 -4 2 -7 -5 -6 -16 1 -11 5 -20 9 -20 4 0 8 -7 8 -16 0 -8 4 -13 8 -10
4 2 14 -4 21 -16 10 -16 10 -19 -1 -13 -7 4 -2 -2 11 -13 13 -10 21 -23 18
-28 -3 -5 1 -17 8 -27 11 -16 13 -15 18 10 3 15 1 36 -5 46 -5 10 -7 26 -4 34
4 9 -4 25 -21 40 -21 19 -23 24 -9 19 20 -7 20 -7 0 16 -10 13 -25 27 -31 31
-7 4 -13 13 -13 20 -1 7 -12 26 -26 42 -15 17 -23 24 -20 18 4 -8 1 -13 -6
-13 -9 0 -13 14 -13 40 0 31 4 40 18 40 9 0 17 5 17 11 0 6 -9 8 -20 4 -16 -5
-20 -2 -20 18 0 14 5 27 12 29 8 3 8 9 0 24 -11 19 -11 19 -12 -1z"/>
<path d="M4213 1755 c3 -17 1 -37 -5 -45 -8 -12 -9 -12 -4 3 6 18 -2 47 -13
47 -3 0 -12 -13 -19 -30 -14 -30 -8 -55 9 -45 5 4 9 -8 9 -25 0 -21 -4 -29
-12 -24 -8 5 -9 2 -5 -10 4 -10 7 -21 7 -24 0 -4 5 0 11 8 8 11 9 8 4 -15 -9
-42 -9 -57 -1 -80 7 -17 6 -18 -4 -5 -10 13 -11 12 -5 -5 4 -11 8 -50 10 -86
5 -95 15 -144 27 -127 7 9 8 5 3 -12 -12 -44 -7 -131 8 -149 8 -9 18 -34 21
-55 l8 -39 19 29 c10 16 19 43 19 59 0 23 -3 27 -10 15 -8 -12 -10 -9 -10 12
0 14 -3 33 -6 42 -4 11 0 16 12 17 15 0 16 2 4 7 -8 4 -15 13 -15 21 0 24 -25
24 -34 -1 -5 -15 -7 0 -5 46 4 71 13 102 15 50 1 -28 1 -28 10 6 9 39 3 73
-10 52 -5 -8 -8 -1 -8 18 0 16 4 30 8 30 5 0 5 17 2 38 -3 20 -5 49 -5 65 1
15 -3 27 -9 27 -5 0 -9 15 -9 33 1 64 -8 168 -15 175 -4 4 -5 -7 -2 -23z m70
-670 c-3 -9 -8 -14 -10 -11 -3 3 -2 9 2 15 9 16 15 13 8 -4z"/>
<path d="M3488 1713 c7 -3 16 -2 19 1 4 3 -2 6 -13 5 -11 0 -14 -3 -6 -6z"/>
<path d="M4099 1662 c-1 -4 0 -16 1 -26 1 -10 -3 -28 -8 -40 -26 -53 -40 -132
-22 -121 4 3 11 -1 14 -7 5 -10 7 -10 12 0 3 6 12 12 21 12 10 0 12 6 7 23 -3
12 -11 24 -15 25 -12 5 -11 72 1 72 6 0 10 -14 10 -32 0 -49 11 -26 16 35 4
48 2 55 -16 60 -11 3 -21 2 -21 -1z"/>
<path d="M4460 1513 c-8 -15 -19 -31 -25 -35 -5 -4 -6 -8 -1 -8 5 0 2 -8 -5
-17 -8 -10 -9 -14 -2 -10 7 5 12 1 12 -10 1 -39 5 -53 13 -53 5 0 6 9 3 20 -4
14 -2 20 6 18 7 -2 14 2 14 7 3 23 18 44 27 39 5 -3 4 3 -4 15 -14 22 -34 30
-22 9 5 -10 3 -10 -7 0 -12 11 -12 14 0 21 7 5 12 14 9 21 -2 6 -10 -1 -18
-17z"/>
<path d="M3901 1514 c0 -11 3 -14 6 -6 3 7 2 16 -1 19 -3 4 -6 -2 -5 -13z"/>
<path d="M3907 1473 c-4 -3 -7 -16 -7 -27 0 -17 2 -18 10 -6 7 11 9 8 8 -15
-1 -16 2 -39 6 -50 6 -16 6 -17 -3 -5 -9 13 -11 13 -11 -2 0 -9 5 -20 10 -23
6 -3 10 -23 10 -43 0 -27 3 -33 10 -22 5 8 12 11 16 7 14 -14 34 43 23 70 -5
14 -7 33 -4 42 5 17 -57 85 -68 74z m60 -145 c-3 -8 -6 -5 -6 6 -1 11 2 17 5
13 3 -3 4 -12 1 -19z"/>
<path d="M3961 1464 c0 -11 3 -14 6 -6 3 7 2 16 -1 19 -3 4 -6 -2 -5 -13z"/>
<path d="M3842 1430 c0 -19 2 -27 5 -17 2 9 2 25 0 35 -3 9 -5 1 -5 -18z"/>
<path d="M4056 1443 c-11 -11 -6 -23 9 -23 12 0 14 -7 9 -27 -9 -39 -14 -41
-15 -7 -1 22 -3 18 -9 -16 -11 -60 -2 -120 16 -113 8 3 14 0 14 -6 0 -6 -7
-11 -15 -11 -10 0 -15 -10 -15 -30 0 -16 -4 -30 -9 -30 -15 0 -18 -69 -4 -75
30 -11 78 47 49 59 -7 3 -7 5 2 5 6 1 12 10 12 22 0 15 -5 19 -15 15 -9 -3
-15 0 -15 9 0 8 5 15 10 15 6 0 10 7 10 15 0 8 5 15 11 15 6 0 8 7 5 16 -3 8
-1 35 4 59 6 28 6 53 0 69 -9 26 -43 50 -54 39z m31 -165 c-3 -8 -6 -5 -6 6
-1 11 2 17 5 13 3 -3 4 -12 1 -19z"/>
<path d="M3786 1402 c-10 -19 -15 -62 -7 -62 20 0 22 -44 6 -118 -10 -42 -22
-86 -28 -97 -10 -18 -12 -17 -18 15 -4 19 -10 45 -14 58 -10 29 13 30 24 0 6
-18 9 -19 14 -5 4 11 -6 29 -29 52 -19 20 -32 40 -29 45 3 5 0 12 -6 16 -8 4
-9 3 -5 -5 4 -6 0 -14 -9 -17 -10 -4 -13 -13 -9 -26 4 -14 2 -18 -5 -14 -6 4
-11 2 -11 -4 0 -7 8 -9 20 -5 17 5 19 2 16 -24 -2 -17 0 -31 4 -31 4 0 11 -12
15 -27 9 -36 37 -71 54 -65 9 3 11 0 6 -8 -5 -8 -1 -11 11 -8 16 3 18 11 16
47 -3 30 0 41 7 37 17 -11 13 10 -4 24 -17 14 -21 35 -5 25 7 -4 9 2 4 19 -6
26 10 38 19 14 2 -7 2 -3 1 9 -2 12 0 25 6 28 11 7 12 66 1 104 -6 22 -36 38
-45 23z"/>
<path d="M3642 1360 c14 -22 24 -19 15 5 -4 8 -11 15 -17 15 -6 0 -6 -7 2 -20z"/>
<path d="M4370 1360 c-14 -26 -6 -51 21 -69 19 -11 21 -11 15 4 -3 9 -6 28 -6
41 0 17 -4 23 -12 18 -8 -5 -9 -2 -5 9 9 24 0 21 -13 -3z"/>
<path d="M4423 1343 c-3 -10 -8 -21 -10 -25 -10 -19 6 -5 21 17 9 14 12 25 6
25 -6 0 -13 -8 -17 -17z"/>
<path d="M3670 1330 c0 -5 5 -10 11 -10 5 0 7 5 4 10 -3 6 -8 10 -11 10 -2 0
-4 -4 -4 -10z"/>
<path d="M3620 1304 c1 -15 29 -48 36 -41 3 3 -3 16 -15 28 -12 13 -21 19 -21
13z"/>
<path d="M3779 1305 c-4 -5 -9 -23 -13 -40 -7 -30 -7 -30 9 -7 9 12 15 30 13
40 -2 9 -6 13 -9 7z"/>
<path d="M4322 1269 c-16 -26 -17 -37 -9 -75 l10 -44 21 33 c11 17 19 42 17
54 -1 11 3 24 9 28 9 5 10 1 5 -16 -4 -13 -6 -22 -3 -19 30 37 30 38 0 54 -30
15 -31 15 -50 -15z"/>
<path d="M3939 1253 c-5 -31 -4 -63 3 -63 5 0 6 -16 2 -35 -4 -22 -2 -41 6
-50 6 -8 9 -23 5 -34 -3 -11 -2 -28 4 -39 5 -10 11 -59 12 -110 2 -51 7 -92
12 -92 5 0 6 -11 3 -25 -4 -14 -2 -25 4 -25 5 0 10 -7 10 -15 0 -8 9 -15 21
-15 11 0 18 4 15 9 -3 5 1 11 9 15 18 7 20 43 3 49 -10 3 -9 8 2 22 8 10 15
31 16 48 1 20 -1 25 -7 16 -18 -28 -28 14 -22 93 5 67 4 78 -10 78 -14 0 -31
42 -26 66 1 5 0 11 -1 14 -1 3 -4 18 -6 35 -7 41 -50 86 -55 58z m36 -73 c-9
-14 -25 5 -25 30 0 12 3 12 16 -2 9 -9 13 -21 9 -28z m25 -204 c0 -3 -4 -8
-10 -11 -5 -3 -10 -1 -10 4 0 6 5 11 10 11 6 0 10 -2 10 -4z m-13 -108 c-3 -8
-6 -5 -6 6 -1 11 2 17 5 13 3 -3 4 -12 1 -19z m43 -50 c0 -10 -7 -18 -15 -18
-15 0 -21 40 -8 53 9 9 23 -13 23 -35z"/>
<path d="M3951 1004 c0 -11 3 -14 6 -6 3 7 2 16 -1 19 -3 4 -6 -2 -5 -13z"/>
</g>
</svg>
